  0
SECTION
  2
HEADER
  9
$ACADVER
  1
AC1009
  9
$INSBASE
 10
0.0
 20
0.0
 30
0.0
  9
$EXTMIN
 10
0.0
 20
0.0
 30
0.0
  9
$EXTMAX
 10
420.0
 20
297.0
 30
0.0
  9
$LIMMIN
 10
0.0
 20
0.0
  9
$LIMMAX
 10
420.0
 20
297.0
  9
$ORTHOMODE
 70
     1
  9
$REGENMODE
 70
     1
  9
$FILLMODE
 70
     1
  9
$QTEXTMODE
 70
     0
  9
$MIRRTEXT
 70
     0
  9
$DRAGMODE
 70
     2
  9
$LTSCALE
 40
23.1000000000000014
  9
$OSMODE
 70
    55
  9
$ATTMODE
 70
     1
  9
$TEXTSIZE
 40
0.2
  9
$TRACEWID
 40
0.05
  9
$TEXTSTYLE
  7
STANDARD
  9
$CLAYER
  8
0
  9
$CELTYPE
  6
BYLAYER
  9
$CECOLOR
 62
   256
  9
$DIMSCALE
 40
1.0
  9
$DIMASZ
 40
3.5
  9
$DIMEXO
 40
1.0
  9
$DIMDLI
 40
15.9600000000000009
  9
$DIMRND
 40
0.0
  9
$DIMDLE
 40
0.0
  9
$DIMEXE
 40
1.5
  9
$DIMTP
 40
0.01
  9
$DIMTM
 40
0.01
  9
$DIMTXT
 40
3.5
  9
$DIMCEN
 40
3.7799999999999989
  9
$DIMTSZ
 40
0.0
  9
$DIMTOL
 70
     1
  9
$DIMLIM
 70
     0
  9
$DIMTIH
 70
     1
  9
$DIMTOH
 70
     1
  9
$DIMSE1
 70
     0
  9
$DIMSE2
 70
     0
  9
$DIMTAD
 70
     0
  9
$DIMZIN
 70
     0
  9
$DIMBLK
  1
_FILLED
  9
$DIMASO
 70
     1
  9
$DIMSHO
 70
     1
  9
$DIMPOST
  1

  9
$DIMAPOST
  1

  9
$DIMALT
 70
     0
  9
$DIMALTD
 70
     2
  9
$DIMALTF
 40
0.0393700787
  9
$DIMLFAC
 40
1.0
  9
$DIMTOFL
 70
     0
  9
$DIMTVP
 40
0.0
  9
$DIMTIX
 70
     0
  9
$DIMSOXD
 70
     0
  9
$DIMSAH
 70
     0
  9
$DIMBLK1
  1

  9
$DIMBLK2
  1

  9
$DIMSTYLE
  2
STANDARD
  9
$DIMCLRD
 70
     0
  9
$DIMCLRE
 70
     0
  9
$DIMCLRT
 70
     0
  9
$DIMTFAC
 40
1.0
  9
$DIMGAP
 40
0.625
  9
$LUNITS
 70
     2
  9
$LUPREC
 70
     4
  9
$SKETCHINC
 40
0.1
  9
$FILLETRAD
 40
0.0
  9
$AUNITS
 70
     0
  9
$AUPREC
 70
     0
  9
$MENU
  1
.
  9
$ELEVATION
 40
0.0
  9
$PELEVATION
 40
0.0
  9
$THICKNESS
 40
0.0
  9
$LIMCHECK
 70
     0
  9
$BLIPMODE
 70
     0
  9
$CHAMFERA
 40
0.0
  9
$CHAMFERB
 40
0.0
  9
$SKPOLY
 70
     0
  9
$TDCREATE
 40
2459422.7759953709319234
  9
$TDUPDATE
 40
2459430.8972800928167999
  9
$TDINDWG
 40
0.010162037
  9
$TDUSRTIMER
 40
0.010162037
  9
$USRTIMER
 70
     1
  9
$ANGBASE
 50
0.0
  9
$ANGDIR
 70
     0
  9
$PDMODE
 70
     3
  9
$PDSIZE
 40
8.0
  9
$PLINEWID
 40
0.0
  9
$COORDS
 70
     1
  9
$SPLFRAME
 70
     0
  9
$SPLINETYPE
 70
     6
  9
$SPLINESEGS
 70
     8
  9
$ATTDIA
 70
     1
  9
$ATTREQ
 70
     1
  9
$HANDLING
 70
     1
  9
$HANDSEED
  5
655
  9
$SURFTAB1
 70
     6
  9
$SURFTAB2
 70
     6
  9
$SURFTYPE
 70
     6
  9
$SURFU
 70
     6
  9
$SURFV
 70
     6
  9
$UCSNAME
  2

  9
$UCSORG
 10
0.0
 20
0.0
 30
0.0
  9
$UCSXDIR
 10
1.0
 20
0.0
 30
0.0
  9
$UCSYDIR
 10
0.0
 20
1.0
 30
0.0
  9
$PUCSNAME
  2

  9
$PUCSORG
 10
0.0
 20
0.0
 30
0.0
  9
$PUCSXDIR
 10
1.0
 20
0.0
 30
0.0
  9
$PUCSYDIR
 10
0.0
 20
1.0
 30
0.0
  9
$USERI1
 70
     0
  9
$USERI2
 70
     0
  9
$USERI3
 70
     0
  9
$USERI4
 70
     0
  9
$USERI5
 70
     0
  9
$USERR1
 40
0.0
  9
$USERR2
 40
0.0
  9
$USERR3
 40
0.0
  9
$USERR4
 40
0.0
  9
$USERR5
 40
0.0
  9
$WORLDVIEW
 70
     1
  9
$SHADEDGE
 70
     3
  9
$SHADEDIF
 70
    70
  9
$TILEMODE
 70
     1
  9
$MAXACTVP
 70
    64
  9
$PLIMCHECK
 70
     0
  9
$PEXTMIN
 10
1.0000000000000000E+20
 20
1.0000000000000000E+20
 30
1.0000000000000000E+20
  9
$PEXTMAX
 10
-1.0000000000000000E+20
 20
-1.0000000000000000E+20
 30
-1.0000000000000000E+20
  9
$PLIMMIN
 10
0.0
 20
0.0
  9
$PLIMMAX
 10
12.0
 20
9.0
  9
$UNITMODE
 70
     0
  9
$VISRETAIN
 70
     1
  9
$PLINEGEN
 70
     0
  9
$PSLTSCALE
 70
     1
  0
ENDSEC
  0
SECTION
  2
TABLES
  0
TABLE
  2
VPORT
 70
     1
  0
VPORT
  2
*ACTIVE
 70
     0
 10
0.0
 20
0.0
 11
1.0
 21
1.0
 12
215.1115918205586865
 22
114.2676749519175985
 13
0.0
 23
0.0
 14
1.0
 24
1.0
 15
0.0
 25
0.0
 16
0.0
 26
0.0
 36
1.0
 17
0.0
 27
0.0
 37
0.0
 40
316.2343567486847746
 41
2.4028169014084502
 42
50.0
 43
0.0
 44
0.0
 50
0.0
 51
0.0
 71
     0
 72
   100
 73
     1
 74
     1
 75
     0
 76
     0
 77
     0
 78
     0
  0
ENDTAB
  0
TABLE
  2
LTYPE
 70
     7
  0
LTYPE
  2
CONTINUOUS
 70
     0
  3
Solid line
 72
    65
 73
     0
 40
0.0
  0
LTYPE
  2
CENTER
 70
     0
  3
____ _ ____ _ ____ _ ____ _ ____ _ ____ _ ____
 72
    65
 73
     4
 40
0.6
 49
0.375
 49
-0.075
 49
0.075
 49
-0.075
  0
LTYPE
  2
HIDDEN
 70
     0
  3
- - - - - - - - - - - - - - - - - - - -
 72
    65
 73
     2
 40
0.2
 49
0.1
 49
-0.1
  0
LTYPE
  2
PHANTOM
 70
     0
  3
_____ _ _ _____ _ _ _____ _ _ _____
 72
    65
 73
     6
 40
0.8
 49
0.45
 49
-0.05
 49
0.1
 49
-0.05
 49
0.1
 49
-0.05
  0
LTYPE
  2
DOT
 70
     0
  3
. . . . . . . . . . . . . . . . . . . .
 72
    65
 73
     2
 40
0.2
 49
0.1
 49
-0.1
  0
LTYPE
  2
DASHED
 70
     0
  3
- - - - - - - - - - - - - - - - - - - -
 72
    65
 73
     2
 40
0.2
 49
0.1
 49
-0.1
  0
ENDTAB
  0
TABLE
  2
LAYER
 70
     5
  0
LAYER
  2
0
 70
     0
 62
     7
  6
CONTINUOUS
  0
LAYER
  2
DEFAULT_1
 70
     0
 62
     7
  6
CENTER
  0
LAYER
  2
DEFAULT_2
 70
     0
 62
     8
  6
HIDDEN
  0
LAYER
  2
DEFAULT_3
 70
     0
 62
     7
  6
PHANTOM
  0
LAYER
  2
3_ALL_SYMBOLS
 70
     0
 62
     7
  6
CONTINUOUS
  0
ENDTAB
  0
TABLE
  2
STYLE
 70
     4
  0
STYLE
  2
STANDARD
 70
     0
 40
0.0
 41
0.85
 50
0.0
 71
     0
 42
0.2
  3
txt
  4

  0
STYLE
  2
ANNOTATIVE
 70
     0
 40
0.0
 41
1.0
 50
0.0
 71
     0
 42
0.2
  3
txt
  4

  0
STYLE
  2
TEXTSTYLE_1
 70
     0
 40
0.0
 41
0.8
 50
0.0
 71
     0
 42
0.2
  3
gdt
  4

  0
STYLE
  2
MTXPL_
 70
     0
 40
0.0
 41
1.0
 50
0.0
 71
     0
 42
0.2
  3
txt
  4

  0
ENDTAB
  0
TABLE
  2
VIEW
 70
     0
  0
ENDTAB
  0
TABLE
  2
UCS
 70
     0
  0
ENDTAB
  0
TABLE
  2
APPID
 70
     5
  0
APPID
  2
ACAD
 70
     0
  0
APPID
  2
ACADANNOTATIVE
 70
     0
  0
APPID
  2
ACAD_NAV_VCDISPLAY
 70
     0
  0
APPID
  2
ACAD_EXEMPT_FROM_CAD_STANDARDS
 70
     0
  0
APPID
  2
ACAD_MLEADERVER
 70
     0
  0
ENDTAB
  0
TABLE
  2
DIMSTYLE
 70
     5
  0
DIMSTYLE
  2
STANDARD
 70
     0
  3

  4

  5

  6

  7

 40
1.0
 41
3.5
 42
1.0
 43
0.38
 44
1.5
 45
0.0
 46
0.0
 47
0.01
 48
0.01
140
3.5
141
0.09
142
0.0
143
25.3999999999999986
144
1.0
145
0.0
146
1.0
147
0.625
 71
     1
 72
     0
 73
     0
 74
     0
 75
     0
 76
     0
 77
     1
 78
     8
170
     0
171
     2
172
     0
173
     0
174
     0
175
     0
176
     0
177
     0
178
     0
  0
DIMSTYLE
  2
ANNOTATIVE
 70
     0
  3

  4

  5

  6

  7

 40
1.0
 41
0.18
 42
0.0625
 43
0.38
 44
0.18
 45
0.0
 46
0.0
 47
0.0
 48
0.0
140
0.18
141
0.09
142
0.0
143
25.3999999999999986
144
1.0
145
0.0
146
1.0
147
0.09
 71
     0
 72
     0
 73
     1
 74
     1
 75
     0
 76
     0
 77
     0
 78
     0
170
     0
171
     2
172
     0
173
     0
174
     0
175
     0
176
     0
177
     0
178
     0
  0
DIMSTYLE
  2
DIMSTYLE_1
 70
     0
  3

  4

  5

  6

  7

 40
1.0
 41
3.5
 42
1.0
 43
0.38
 44
1.5
 45
0.0
 46
0.0
 47
0.01
 48
0.01
140
3.5
141
0.09
142
0.0
143
25.3999999999999986
144
1.0
145
0.0
146
1.0
147
0.875
 71
     0
 72
     0
 73
     0
 74
     0
 75
     0
 76
     0
 77
     1
 78
     8
170
     0
171
     2
172
     0
173
     0
174
     0
175
     0
176
     0
177
     0
178
     0
  0
DIMSTYLE
  2
ISO-25
 70
     0
  3

  4

  5

  6

  7

 40
1.0
 41
2.5
 42
0.625
 43
3.75
 44
1.25
 45
0.0
 46
0.0
 47
0.0
 48
0.0
140
2.5
141
2.5
142
0.0
143
0.03937007874016
144
1.0
145
0.0
146
1.0
147
0.625
 71
     0
 72
     0
 73
     0
 74
     0
 75
     0
 76
     0
 77
     1
 78
     8
170
     0
171
     3
172
     1
173
     0
174
     0
175
     0
176
     0
177
     0
178
     0
  0
ENDTAB
  0
ENDSEC
  0
SECTION
  2
BLOCKS
  0
BLOCK
  8
0
  2
$MODEL_SPACE
 70
     0
 10
0.0
 20
0.0
 30
0.0
  3
$MODEL_SPACE
  1

  0
ENDBLK
  5
5B6
  8
0
  0
BLOCK
 67
     1
  8
0
  2
$PAPER_SPACE
 70
     0
 10
0.0
 20
0.0
 30
0.0
  3
$PAPER_SPACE
  1

  0
ENDBLK
  5
5B2
 67
     1
  8
0
  0
BLOCK
  8
0
  2
_FILLED
 70
     0
 10
0.0
 20
0.0
 30
0.0
  3
_FILLED
  1

  0
SOLID
  5
208
  8
0
  6
BYBLOCK
 62
     0
 10
0.0
 20
0.0
 30
0.0
 11
-1.0
 21
0.2142857143
 31
0.0
 12
-1.0
 22
-0.2142857143
 32
0.0
 13
-1.0
 23
-0.2142857143
 33
0.0
  0
ENDBLK
  5
209
  8
0
  6
BYBLOCK
 62
     0
  0
BLOCK
  8
0
  6
CONTINUOUS
 62
     2
  2
*D3
 70
     1
 10
0.0
 20
0.0
 30
0.0
  3
*D3
  1

  0
INSERT
  5
20B
  8
0
  2
*U4
 10
0.0
 20
0.0
 30
0.0
  0
LINE
  5
20C
  8
0
  6
CONTINUOUS
 62
     2
 10
28.742453556600001
 20
206.1668934049999962
 30
0.0
 11
28.742453556600001
 21
239.7836538461999965
 31
0.0
  0
LINE
  5
20D
  8
0
  6
CONTINUOUS
 62
     2
 10
380.0075464433999741
 20
212.3920497930000124
 30
0.0
 11
380.0075464433999741
 21
239.7836538461999965
 31
0.0
  0
LINE
  5
20E
  8
0
  6
CONTINUOUS
 62
     2
 10
28.742453556600001
 20
238.2836538461999965
 30
0.0
 11
204.375
 21
238.2836538461999965
 31
0.0
  0
LINE
  5
20F
  8
0
  6
CONTINUOUS
 62
     2
 10
380.0075464433999741
 20
238.2836538461999965
 30
0.0
 11
204.375
 21
238.2836538461999965
 31
0.0
  0
INSERT
  5
210
  8
0
  6
CONTINUOUS
 62
     2
  2
_FILLED
 10
28.742453556600001
 20
238.2836538461999965
 30
0.0
 41
3.5
 42
3.5
 43
3.5
 50
180.0
  0
INSERT
  5
211
  8
0
  6
CONTINUOUS
 62
     2
  2
_FILLED
 10
380.0075464433999741
 20
238.2836538461999965
 30
0.0
 41
3.5
 42
3.5
 43
3.5
  0
ENDBLK
  5
212
  8
0
  6
BYBLOCK
 62
     0
  0
BLOCK
  8
0
  2
*U4
 70
     1
 10
0.0
 20
0.0
 30
0.0
  3
*U4
  1

  0
TEXT
  5
4D0
  8
0
 62
     2
 10
197.1854166666666117
 20
239.1586538461999965
 30
0.0
 40
3.5
  1
351,27
 41
0.85
  0
ENDBLK
  5
4D2
  8
0
  0
BLOCK
  8
0
  6
CONTINUOUS
 62
     2
  2
*D5
 70
     1
 10
0.0
 20
0.0
 30
0.0
  3
*D5
  1

  0
INSERT
  5
214
  8
0
  2
*U6
 10
0.0
 20
0.0
 30
0.0
  0
LINE
  5
215
  8
0
  6
CONTINUOUS
 62
     2
 10
379.5464117133998911
 20
212.8453800862000094
 30
0.0
 11
395.8244163691999802
 21
212.8453800862000094
 31
0.0
  0
LINE
  5
216
  8
0
  6
CONTINUOUS
 62
     2
 10
361.5951322250999738
 20
79.6523343352999831
 30
0.0
 11
395.8244163691999802
 21
79.6523343352999831
 31
0.0
  0
LINE
  5
217
  8
0
  6
CONTINUOUS
 62
     2
 10
394.3244163691999802
 20
212.8453800862000094
 30
0.0
 11
394.3244163691999802
 21
146.2488572107000095
 31
0.0
  0
LINE
  5
218
  8
0
  6
CONTINUOUS
 62
     2
 10
394.3244163691999802
 20
79.6523343352999831
 30
0.0
 11
394.3244163691999802
 21
146.2488572107000095
 31
0.0
  0
INSERT
  5
219
  8
0
  6
CONTINUOUS
 62
     2
  2
_FILLED
 10
394.3244163691999802
 20
212.8453800862000094
 30
0.0
 41
3.5
 42
3.5
 43
3.5
 50
90.0
  0
INSERT
  5
21A
  8
0
  6
CONTINUOUS
 62
     2
  2
_FILLED
 10
394.3244163691999802
 20
79.6523343352999831
 30
0.0
 41
3.5
 42
3.5
 43
3.5
 50
270.0
  0
ENDBLK
  5
21B
  8
0
  6
BYBLOCK
 62
     0
  0
BLOCK
  8
0
  2
*U6
 70
     1
 10
0.0
 20
0.0
 30
0.0
  3
*U6
  1

  0
TEXT
  5
4D4
  8
0
 62
     2
 10
393.4494163691999802
 20
139.5551072106999868
 30
0.0
 40
3.5
  1
133,19
 50
90.0
 41
0.85
  0
ENDBLK
  5
4D6
  8
0
  0
BLOCK
  8
0
  2
*U7
 70
     1
 10
0.0
 20
0.0
 30
0.0
  3
*U7
  1

  0
TEXT
  5
4D9
  8
0
 62
     2
 10
183.8214618249533032
 20
71.7352952291547581
 30
0.0
 40
3.5
  1
±ÈÀý 
 41
0.85
  7
MTXPL_
  0
TEXT
  5
4DB
  8
0
 62
     2
 10
194.458333333333286
 20
71.7352952291547581
 30
0.0
 40
3.5
  1
1,000
 41
0.85
  0
ENDBLK
  5
4DD
  8
0
  0
ENDSEC
  0
SECTION
  2
ENTITIES
  0
DIMENSION
  5
21C
  8
0
  6
CONTINUOUS
 62
     2
  2
*D3
 10
380.0075464433999741
 20
238.2836538461999965
 30
0.0
 11
204.3750018311000076
 21
238.2836538461999965
 31
0.0
 70
   128
 13
28.742453556600001
 23
205.1668934049999962
 33
0.0
 14
380.0075464433999741
 24
211.3920497930000124
 34
0.0
  0
DIMENSION
  5
21D
  8
0
  6
CONTINUOUS
 62
     2
  2
*D5
 10
394.3244163691999802
 20
79.6523343352999831
 30
0.0
 11
394.3244163691999802
 21
146.6207311247000007
 31
0.0
 70
   128
 13
378.5464117133998911
 23
212.8453800862000094
 33
0.0
 14
360.5951322250999738
 24
79.6523343352999831
 34
0.0
 50
270.0
  0
INSERT
  5
21E
  8
0
  2
*U7
 10
0.0
 20
0.0
 30
0.0
  0
LINE
  5
21F
  8
0
  6
CONTINUOUS
 62
     7
 10
0.0
 20
0.0
 30
0.0
 11
0.0
 21
297.0
 31
0.0
  0
LINE
  5
220
  8
0
  6
CONTINUOUS
 62
     7
 10
0.0
 20
0.0
 30
0.0
 11
420.0
 21
0.0
 31
0.0
  0
LINE
  5
221
  8
0
  6
CONTINUOUS
 62
     7
 10
0.0
 20
297.0
 30
0.0
 11
420.0
 21
297.0
 31
0.0
  0
LINE
  5
222
  8
0
  6
CONTINUOUS
 62
     7
 10
420.0
 20
0.0
 30
0.0
 11
420.0
 21
297.0
 31
0.0
  0
LINE
  5
223
  8
0
  6
CONTINUOUS
 62
     7
 10
28.742453556600001
 20
205.1668934049999962
 30
0.0
 11
28.742453556600001
 21
88.507665679699997
 31
0.0
  0
LINE
  5
224
  8
0
  6
CONTINUOUS
 62
     7
 10
33.0472839597999979
 20
165.7376596796999024
 30
0.0
 11
33.0472839597999979
 21
179.7376596796999024
 31
0.0
  0
LINE
  5
225
  8
0
  6
CONTINUOUS
 62
     7
 10
33.0472839597999979
 20
184.1409626797000101
 30
0.0
 11
33.0472839597999979
 21
185.1409626797000101
 31
0.0
  0
LINE
  5
226
  8
0
  6
CONTINUOUS
 62
     7
 10
33.0472839597999979
 20
189.5459626797000112
 30
0.0
 11
33.0472839597999979
 21
203.5459626797000112
 31
0.0
  0
LINE
  5
227
  8
0
  6
CONTINUOUS
 62
     7
 10
35.4278239598000013
 20
127.6369596796999986
 30
0.0
 11
35.4278239598000013
 21
141.6369596796999986
 31
0.0
  0
LINE
  5
228
  8
0
  6
CONTINUOUS
 62
     7
 10
35.4285439598000025
 20
89.5376096796999832
 30
0.0
 11
35.4285439598000025
 21
103.5334626796999942
 31
0.0
  0
LINE
  5
22A
  8
0
  6
CONTINUOUS
 62
     7
 10
37.8097889598000094
 20
146.6869596797000099
 30
0.0
 11
37.8097889598000094
 21
160.6869596797000099
 31
0.0
  0
LINE
  5
22B
  8
0
  6
CONTINUOUS
 62
     7
 10
42.8274175126000003
 20
212.0334198941999944
 30
0.0
 11
42.8274477950999923
 21
209.1669153786000095
 31
0.0
  0
LINE
  5
22E
  8
0
  6
CONTINUOUS
 62
     7
 10
47.0468339597999972
 20
203.5459626797000112
 30
0.0
 11
47.0468339597999972
 21
189.5459626797000112
 31
0.0
  0
LINE
  5
22F
  8
0
  6
CONTINUOUS
 62
     7
 10
47.0468339597999972
 20
179.7376596796999024
 30
0.0
 11
47.0468339597999972
 21
165.7376596796999024
 31
0.0
  0
LINE
  5
230
  8
0
  6
CONTINUOUS
 62
     7
 10
51.808263959899989
 20
103.5334626796999942
 30
0.0
 11
51.808263959899989
 21
89.5376096796999832
 31
0.0
  0
LINE
  5
231
  8
0
  6
CONTINUOUS
 62
     7
 10
51.8093389597999874
 20
160.6869596797000099
 30
0.0
 11
51.8093389597999874
 21
146.6869596797000099
 31
0.0
  0
LINE
  5
232
  8
0
  6
CONTINUOUS
 62
     7
 10
52.0972089597999926
 20
165.7376596796999024
 30
0.0
 11
52.0972089597999926
 21
179.7376596796999024
 31
0.0
  0
LINE
  5
233
  8
0
  6
CONTINUOUS
 62
     7
 10
52.0972089597999926
 20
189.5459626797000112
 30
0.0
 11
52.0972089597999926
 21
203.5459626797000112
 31
0.0
  0
LINE
  5
234
  8
0
  6
CONTINUOUS
 62
     7
 10
53.9405339597999927
 20
141.6369596796999986
 30
0.0
 11
53.9405339597999927
 21
127.6369596796999986
 31
0.0
  0
LINE
  5
235
  8
0
  6
CONTINUOUS
 62
     7
 10
41.0154036296000015
 20
86.4194492663999938
 30
0.0
 11
46.6997716085000008
 21
80.2691494859999892
 31
0.0
  0
LINE
  5
238
  8
0
  6
CONTINUOUS
 62
     7
 10
59.2396339597999884
 20
89.5376096796999832
 30
0.0
 11
59.2396339597999884
 21
103.5334626796999942
 31
0.0
  0
LINE
  5
239
  8
0
  6
CONTINUOUS
 62
     7
 10
61.6222089597999982
 20
146.6876596797000047
 30
0.0
 11
61.6222089597999982
 21
160.6876596797000047
 31
0.0
  0
LINE
  5
23A
  8
0
  6
CONTINUOUS
 62
     7
 10
66.0967589597999989
 20
203.5459626797000112
 30
0.0
 11
66.0967589597999989
 21
189.5459626797000112
 31
0.0
  0
LINE
  5
23B
  8
0
  6
CONTINUOUS
 62
     7
 10
66.0967589597999989
 20
179.7376596796999024
 30
0.0
 11
66.0967589597999989
 21
165.7376596796999024
 31
0.0
  0
LINE
  5
23C
  8
0
  6
CONTINUOUS
 62
     7
 10
66.384708959799994
 20
127.6376596796999934
 30
0.0
 11
66.384708959799994
 21
141.6376596796999934
 31
0.0
  0
LINE
  5
23E
  8
0
  6
CONTINUOUS
 62
     7
 10
71.1472089597999968
 20
165.7376596796999024
 30
0.0
 11
71.1472089597999968
 21
179.7376596796999024
 31
0.0
  0
LINE
  5
23F
  8
0
  6
CONTINUOUS
 62
     7
 10
71.1472089597999968
 20
189.5459626797000112
 30
0.0
 11
71.1472089597999968
 21
203.5459626797000112
 31
0.0
  0
LINE
  5
240
  8
0
  6
CONTINUOUS
 62
     7
 10
75.6206839597999902
 20
103.5334626796999942
 30
0.0
 11
75.6206839597999902
 21
89.5376096796999832
 31
0.0
  0
LINE
  5
241
  8
0
  6
CONTINUOUS
 62
     7
 10
75.6217589597999904
 20
160.6876596797000047
 30
0.0
 11
75.6217589597999904
 21
146.6876596797000047
 31
0.0
  0
LINE
  5
242
  8
0
  6
CONTINUOUS
 62
     7
 10
75.9097089597999855
 20
108.5876596796999962
 30
0.0
 11
75.9097089597999855
 21
122.5876596796999962
 31
0.0
  0
LINE
  5
243
  8
0
  6
CONTINUOUS
 62
     7
 10
80.3842589597999932
 20
141.6376596796999934
 30
0.0
 11
80.3842589597999932
 21
127.6376596796999934
 31
0.0
  0
LINE
  5
244
  8
0
  6
CONTINUOUS
 62
     7
 10
80.6721339597999929
 20
146.6876596797000047
 30
0.0
 11
80.6721339597999929
 21
160.6876596797000047
 31
0.0
  0
LINE
  5
245
  8
0
  6
CONTINUOUS
 62
     7
 10
83.0536339597999813
 20
89.5376096796999832
 30
0.0
 11
83.0536339597999813
 21
103.5334626796999942
 31
0.0
  0
LINE
  5
246
  8
0
  6
CONTINUOUS
 62
     7
 10
85.1467589597999819
 20
203.5459626797000112
 30
0.0
 11
85.1467589597999819
 21
189.5459626797000112
 31
0.0
  0
LINE
  5
247
  8
0
  6
CONTINUOUS
 62
     7
 10
85.1467589597999819
 20
179.7376596796999024
 30
0.0
 11
85.1467589597999819
 21
165.7376596796999024
 31
0.0
  0
LINE
  5
248
  8
0
  6
CONTINUOUS
 62
     7
 10
85.4346339597999815
 20
127.6376596796999934
 30
0.0
 11
85.4346339597999815
 21
141.6376596796999934
 31
0.0
  0
LINE
  5
249
  8
0
  6
CONTINUOUS
 62
     7
 10
89.9092589597999989
 20
122.5876596796999962
 30
0.0
 11
89.9092589597999989
 21
108.5876596796999962
 31
0.0
  0
LINE
  5
24A
  8
0
  6
CONTINUOUS
 62
     7
 10
90.197208959799994
 20
165.7376596796999024
 30
0.0
 11
90.197208959799994
 21
179.7376596796999024
 31
0.0
  0
LINE
  5
24B
  8
0
  6
CONTINUOUS
 62
     7
 10
90.197208959799994
 20
189.5459626797000112
 30
0.0
 11
90.197208959799994
 21
203.5459626797000112
 31
0.0
  0
LINE
  5
24C
  8
0
  6
CONTINUOUS
 62
     7
 10
94.6716839598000064
 20
160.6876596797000047
 30
0.0
 11
94.6716839598000064
 21
146.6876596797000047
 31
0.0
  0
LINE
  5
24D
  8
0
  6
CONTINUOUS
 62
     7
 10
94.9596339598000014
 20
108.5876596796999962
 30
0.0
 11
94.9596339598000014
 21
122.5876596796999962
 31
0.0
  0
LINE
  5
24E
  8
0
  6
CONTINUOUS
 62
     7
 10
99.4331839598000045
 20
103.5334626796999942
 30
0.0
 11
99.4331839598000045
 21
89.5376096796999832
 31
0.0
  0
LINE
  5
24F
  8
0
  6
CONTINUOUS
 62
     7
 10
99.434183959799995
 20
141.6376596796999934
 30
0.0
 11
99.434183959799995
 21
127.6376596796999934
 31
0.0
  0
LINE
  5
250
  8
0
  6
CONTINUOUS
 62
     7
 10
99.7221339598000043
 20
146.6876596797000047
 30
0.0
 11
99.7221339598000043
 21
160.6876596797000047
 31
0.0
  0
LINE
  5
251
  8
0
  6
CONTINUOUS
 62
     7
 10
104.1967589597999932
 20
203.5459626797000112
 30
0.0
 11
104.1967589597999932
 21
189.5459626797000112
 31
0.0
  0
LINE
  5
252
  8
0
  6
CONTINUOUS
 62
     7
 10
104.1967589597999932
 20
179.7376596796999024
 30
0.0
 11
104.1967589597999932
 21
165.7376596796999024
 31
0.0
  0
LINE
  5
253
  8
0
  6
CONTINUOUS
 62
     7
 10
104.4846339597999929
 20
127.6376596796999934
 30
0.0
 11
104.4846339597999929
 21
141.6376596796999934
 31
0.0
  0
LINE
  5
254
  8
0
  6
CONTINUOUS
 62
     7
 10
124.1230461547999937
 20
212.8910799152999971
 30
0.0
 11
121.9227184678999976
 21
210.6907522285000027
 31
0.0
  0
LINE
  5
255
  8
0
  6
CONTINUOUS
 62
     7
 10
107.8970593978999943
 20
90.0355361830999641
 30
0.0
 11
107.8970593978999943
 21
103.0355361831000067
 31
0.0
  0
LINE
  5
256
  8
0
  6
CONTINUOUS
 62
     7
 10
108.9591839598000007
 20
122.5876596796999962
 30
0.0
 11
108.9591839598000007
 21
108.5876596796999962
 31
0.0
  0
LINE
  5
257
  8
0
  6
CONTINUOUS
 62
     7
 10
109.2472089598000053
 20
165.7376596796999024
 30
0.0
 11
109.2472089598000053
 21
179.7376596796999024
 31
0.0
  0
LINE
  5
258
  8
0
  6
CONTINUOUS
 62
     7
 10
109.2472089598000053
 20
189.5459626797000112
 30
0.0
 11
109.2472089598000053
 21
203.5459626797000112
 31
0.0
  0
LINE
  5
259
  8
0
  6
CONTINUOUS
 62
     7
 10
113.7216839598000035
 20
160.6876596797000047
 30
0.0
 11
113.7216839598000035
 21
146.6876596797000047
 31
0.0
  0
LINE
  5
25A
  8
0
  6
CONTINUOUS
 62
     7
 10
114.0096339597999986
 20
108.5876596796999962
 30
0.0
 11
114.0096339597999986
 21
122.5876596796999962
 31
0.0
  0
LINE
  5
25B
  8
0
  6
CONTINUOUS
 62
     7
 10
53.5480514374999998
 20
80.3623343352999626
 30
0.0
 11
54.7111670549000024
 21
82.376909679700006
 31
0.0
  0
LINE
  5
25C
  8
0
  6
CONTINUOUS
 62
     7
 10
118.4841839598000064
 20
141.6376596796999934
 30
0.0
 11
118.4841839598000064
 21
127.6376596796999934
 31
0.0
  0
LINE
  5
25D
  8
0
  6
CONTINUOUS
 62
     7
 10
118.7721339598000014
 20
146.6876596797000047
 30
0.0
 11
118.7721339598000014
 21
160.6876596797000047
 31
0.0
  0
LINE
  5
25E
  8
0
  6
CONTINUOUS
 62
     7
 10
119.8469839597999993
 20
103.0355361831000067
 30
0.0
 11
119.8469839597999993
 21
90.0355361830999641
 31
0.0
  0
LINE
  5
25F
  8
0
  6
CONTINUOUS
 62
     7
 10
123.2467589598000046
 20
203.5459626797000112
 30
0.0
 11
123.2467589598000046
 21
189.5459626797000112
 31
0.0
  0
LINE
  5
260
  8
0
  6
CONTINUOUS
 62
     7
 10
123.2467589598000046
 20
179.7376596796999024
 30
0.0
 11
123.2467589598000046
 21
165.7376596796999024
 31
0.0
  0
LINE
  5
261
  8
0
  6
CONTINUOUS
 62
     7
 10
123.5346339598000043
 20
127.6376596796999934
 30
0.0
 11
123.5346339598000043
 21
141.6376596796999934
 31
0.0
  0
LINE
  5
262
  8
0
  6
CONTINUOUS
 62
     7
 10
124.8469839597999993
 20
96.0334626796999942
 30
0.0
 11
124.8469839597999993
 21
97.0334626796999942
 31
0.0
  0
LINE
  5
263
  8
0
  6
CONTINUOUS
 62
     7
 10
128.0091839597999979
 20
122.5876596796999962
 30
0.0
 11
128.0091839597999979
 21
108.5876596796999962
 31
0.0
  0
LINE
  5
264
  8
0
  6
CONTINUOUS
 62
     7
 10
128.2972089598000025
 20
165.7376596796999024
 30
0.0
 11
128.2972089598000025
 21
179.7376596796999024
 31
0.0
  0
LINE
  5
265
  8
0
  6
CONTINUOUS
 62
     7
 10
128.2972089598000025
 20
189.5459626797000112
 30
0.0
 11
128.2972089598000025
 21
203.5459626797000112
 31
0.0
  0
LINE
  5
266
  8
0
  6
CONTINUOUS
 62
     7
 10
148.9937400583000056
 20
82.376909679700006
 30
0.0
 11
150.1279881622000119
 21
80.4123343353000166
 31
0.0
  0
LINE
  5
267
  8
0
  6
CONTINUOUS
 62
     7
 10
132.7716839597999865
 20
160.6876596797000047
 30
0.0
 11
132.7716839597999865
 21
146.6876596797000047
 31
0.0
  0
LINE
  5
268
  8
0
  6
CONTINUOUS
 62
     7
 10
133.05963395980001
 20
108.5876596796999962
 30
0.0
 11
133.05963395980001
 21
122.5876596796999962
 31
0.0
  0
LINE
  5
269
  8
0
  6
CONTINUOUS
 62
     7
 10
137.5341839598000035
 20
141.6376596796999934
 30
0.0
 11
137.5341839598000035
 21
127.6376596796999934
 31
0.0
  0
LINE
  5
26A
  8
0
  6
CONTINUOUS
 62
     7
 10
137.8221339597999986
 20
146.6876596797000047
 30
0.0
 11
137.8221339597999986
 21
160.6876596797000047
 31
0.0
  0
LINE
  5
26B
  8
0
  6
CONTINUOUS
 62
     7
 10
142.2967589598000018
 20
203.5459626797000112
 30
0.0
 11
142.2967589598000018
 21
189.5459626797000112
 31
0.0
  0
LINE
  5
26C
  8
0
  6
CONTINUOUS
 62
     7
 10
142.2967589598000018
 20
185.1409626797000101
 30
0.0
 11
142.2967589598000018
 21
184.1409626797000101
 31
0.0
  0
LINE
  5
26D
  8
0
  6
CONTINUOUS
 62
     7
 10
142.2967589598000018
 20
179.7376596796999024
 30
0.0
 11
142.2967589598000018
 21
165.7376596796999024
 31
0.0
  0
LINE
  5
26E
  8
0
  6
CONTINUOUS
 62
     7
 10
142.5846339597999872
 20
127.6376596796999934
 30
0.0
 11
142.5846339597999872
 21
141.6376596796999934
 31
0.0
  0
LINE
  5
26F
  8
0
  6
CONTINUOUS
 62
     7
 10
48.1097748880999916
 20
79.6523343352999831
 30
0.0
 11
52.3182953641000026
 21
79.6523343352999831
 31
0.0
  0
LINE
  5
270
  8
0
  6
CONTINUOUS
 62
     7
 10
356.3866117490999841
 20
79.6523343352999831
 30
0.0
 11
360.5951322250999738
 21
79.6523343352999831
 31
0.0
  0
LINE
  5
271
  8
0
  6
CONTINUOUS
 62
     7
 10
151.3577442355999949
 20
79.7023343352999802
 30
0.0
 11
157.3471628775999989
 21
79.7023343352999802
 31
0.0
  0
LINE
  5
272
  8
0
  6
CONTINUOUS
 62
     7
 10
251.3577442355999949
 20
79.7023343352999802
 30
0.0
 11
257.3471628775999989
 21
79.7023343352999802
 31
0.0
  0
LINE
  5
273
  8
0
  6
CONTINUOUS
 62
     7
 10
56.5124998946999995
 20
83.416909679699998
 30
0.0
 11
147.1924072184000067
 21
83.416909679699998
 31
0.0
  0
LINE
  5
274
  8
0
  6
CONTINUOUS
 62
     7
 10
161.512499894799987
 20
83.416909679699998
 30
0.0
 11
247.1924072184000067
 21
83.416909679699998
 31
0.0
  0
LINE
  5
275
  8
0
  6
CONTINUOUS
 62
     7
 10
261.512499894799987
 20
83.416909679699998
 30
0.0
 11
352.1924072183999783
 21
83.416909679699998
 31
0.0
  0
LINE
  5
276
  8
0
  6
CONTINUOUS
 62
     7
 10
52.6254886287999994
 20
210.6907522285000027
 30
0.0
 11
50.4251609418999891
 21
212.8910799152999971
 31
0.0
  0
LINE
  5
277
  8
0
  6
CONTINUOUS
 62
     7
 10
147.0591839598000092
 20
122.5876596796999962
 30
0.0
 11
147.0591839598000092
 21
108.5876596796999962
 31
0.0
  0
LINE
  5
278
  8
0
  6
CONTINUOUS
 62
     7
 10
147.2967589598000018
 20
189.5459626797000112
 30
0.0
 11
147.2967589598000018
 21
203.5459626797000112
 31
0.0
  0
LINE
  5
279
  8
0
  6
CONTINUOUS
 62
     7
 10
147.3463589597999999
 20
165.7376596796999024
 30
0.0
 11
147.3463589597999999
 21
179.7376596796999024
 31
0.0
  0
LINE
  5
27A
  8
0
  6
CONTINUOUS
 62
     7
 10
149.4896339597999031
 20
97.0334626796999942
 30
0.0
 11
149.4896339597999031
 21
96.0334626796999942
 31
0.0
  0
LINE
  5
27B
  8
0
  6
CONTINUOUS
 62
     7
 10
151.8216839597999979
 20
160.6876596797000047
 30
0.0
 11
151.8216839597999979
 21
146.6876596797000047
 31
0.0
  0
LINE
  5
27C
  8
0
  6
CONTINUOUS
 62
     7
 10
151.8723589598000103
 20
203.5459626797000112
 30
0.0
 11
151.8723589598000103
 21
189.5459626797000112
 31
0.0
  0
LINE
  5
27D
  8
0
  6
CONTINUOUS
 62
     7
 10
152.1096339597999929
 20
108.5876596796999962
 30
0.0
 11
152.1096339597999929
 21
122.5876596796999962
 31
0.0
  0
LINE
  5
27E
  8
0
  6
CONTINUOUS
 62
     7
 10
154.4896339597999031
 20
89.5376096796999832
 30
0.0
 11
154.4896339597999031
 21
103.5334626796999942
 31
0.0
  0
LINE
  5
27F
  8
0
  6
CONTINUOUS
 62
     7
 10
30.1624535565999992
 20
87.0876656796999811
 30
0.0
 11
39.4879000767000008
 21
87.0876656796999811
 31
0.0
  0
LINE
  5
280
  8
0
  6
CONTINUOUS
 62
     7
 10
369.2170070364999788
 20
87.0876656796999811
 30
0.0
 11
378.5875464434000151
 21
87.0876656796999811
 31
0.0
  0
LINE
  5
281
  8
0
  6
CONTINUOUS
 62
     7
 10
311.3656339597999931
 20
89.5339926796999634
 30
0.0
 11
294.9837839598000073
 21
89.5339926796999634
 31
0.0
  0
LINE
  5
282
  8
0
  6
CONTINUOUS
 62
     7
 10
287.552633959800005
 20
89.5339926796999634
 30
0.0
 11
271.1712839598999949
 21
89.5339926796999634
 31
0.0
  0
LINE
  5
283
  8
0
  6
CONTINUOUS
 62
     7
 10
263.7406339597999931
 20
89.5339926796999634
 30
0.0
 11
247.3587839598999949
 21
89.5339926796999634
 31
0.0
  0
LINE
  5
284
  8
0
  6
CONTINUOUS
 62
     7
 10
375.6593339597999943
 20
89.5369096796999884
 30
0.0
 11
361.659783959799995
 21
89.5369096796999884
 31
0.0
  0
LINE
  5
285
  8
0
  6
CONTINUOUS
 62
     7
 10
356.6093339597999829
 20
89.5369096796999884
 30
0.0
 11
342.6097839597999837
 21
89.5369096796999884
 31
0.0
  0
LINE
  5
286
  8
0
  6
CONTINUOUS
 62
     7
 10
337.5594089598000096
 20
89.5369096796999884
 30
0.0
 11
323.5598589598000103
 21
89.5369096796999884
 31
0.0
  0
LINE
  5
287
  8
0
  6
CONTINUOUS
 62
     7
 10
180.3963339599000051
 20
89.5376096796999832
 30
0.0
 11
154.4896339597999031
 21
89.5376096796999832
 31
0.0
  0
LINE
  5
288
  8
0
  6
CONTINUOUS
 62
     7
 10
99.4331839598000045
 20
89.5376096796999832
 30
0.0
 11
83.0536339597999813
 21
89.5376096796999832
 31
0.0
  0
LINE
  5
289
  8
0
  6
CONTINUOUS
 62
     7
 10
75.6206839597999902
 20
89.5376096796999832
 30
0.0
 11
59.2396339597999884
 21
89.5376096796999832
 31
0.0
  0
LINE
  5
28A
  8
0
  6
CONTINUOUS
 62
     7
 10
51.808263959899989
 20
89.5376096796999832
 30
0.0
 11
35.4285439598000025
 21
89.5376096796999832
 31
0.0
  0
LINE
  5
28C
  8
0
  6
CONTINUOUS
 62
     7
 10
217.3964549597999962
 20
90.0355361830999641
 30
0.0
 11
207.897259397900001
 21
90.0355361830999641
 31
0.0
  0
LINE
  5
28D
  8
0
  6
CONTINUOUS
 62
     7
 10
119.8469839597999993
 20
90.0355361830999641
 30
0.0
 11
107.8970593978999943
 21
90.0355361830999641
 31
0.0
  0
LINE
  5
28E
  8
0
  6
CONTINUOUS
 62
     7
 10
202.897259397900001
 20
96.0334626796999942
 30
0.0
 11
185.3963339599000051
 21
96.0334626796999942
 31
0.0
  0
LINE
  5
28F
  8
0
  6
CONTINUOUS
 62
     7
 10
149.4896339597999031
 20
96.0334626796999942
 30
0.0
 11
124.8469839597999993
 21
96.0334626796999942
 31
0.0
  0
LINE
  5
290
  8
0
  6
CONTINUOUS
 62
     7
 10
124.8469839597999993
 20
97.0334626796999942
 30
0.0
 11
149.4896339597999031
 21
97.0334626796999942
 31
0.0
  0
LINE
  5
291
  8
0
  6
CONTINUOUS
 62
     7
 10
185.3963339599000051
 20
97.0334626796999942
 30
0.0
 11
202.897259397900001
 21
97.0334626796999942
 31
0.0
  0
LINE
  5
292
  8
0
  6
CONTINUOUS
 62
     7
 10
156.5841839597999012
 20
141.6376596796999934
 30
0.0
 11
156.5841839597999012
 21
127.6376596796999934
 31
0.0
  0
LINE
  5
293
  8
0
  6
CONTINUOUS
 62
     7
 10
156.872133959799811
 20
146.6876596797000047
 30
0.0
 11
156.872133959799811
 21
160.6876596797000047
 31
0.0
  0
LINE
  5
294
  8
0
  6
CONTINUOUS
 62
     7
 10
156.8723589598000103
 20
184.1409626797000101
 30
0.0
 11
156.8723589598000103
 21
185.1409626797000101
 31
0.0
  0
LINE
  5
295
  8
0
  6
CONTINUOUS
 62
     7
 10
156.8723589598000103
 20
189.5459626797000112
 30
0.0
 11
156.8723589598000103
 21
203.5459626797000112
 31
0.0
  0
LINE
  5
296
  8
0
  6
CONTINUOUS
 62
     7
 10
161.3459089597999991
 20
179.7376596796999024
 30
0.0
 11
161.3459089597999991
 21
165.7376596796999024
 31
0.0
  0
LINE
  5
297
  8
0
  6
CONTINUOUS
 62
     7
 10
161.6346339597999986
 20
127.6376596796999934
 30
0.0
 11
161.6346339597999986
 21
141.6376596796999934
 31
0.0
  0
LINE
  5
298
  8
0
  6
CONTINUOUS
 62
     7
 10
166.1091839597999922
 20
122.5876596796999962
 30
0.0
 11
166.1091839597999922
 21
108.5876596796999962
 31
0.0
  0
LINE
  5
299
  8
0
  6
CONTINUOUS
 62
     7
 10
166.3962839598000016
 20
165.7376596796999024
 30
0.0
 11
166.3962839598000016
 21
179.7376596796999024
 31
0.0
  0
LINE
  5
29A
  8
0
  6
CONTINUOUS
 62
     7
 10
107.8970593978999943
 20
103.0355361831000067
 30
0.0
 11
109.9899339597999983
 21
103.0355361831000067
 31
0.0
  0
LINE
  5
29B
  8
0
  6
CONTINUOUS
 62
     7
 10
112.9899339597999983
 20
103.0355361831000067
 30
0.0
 11
114.746983959800005
 21
103.0355361831000067
 31
0.0
  0
LINE
  5
29C
  8
0
  6
CONTINUOUS
 62
     7
 10
117.746983959800005
 20
103.0355361831000067
 30
0.0
 11
119.8469839597999993
 21
103.0355361831000067
 31
0.0
  0
LINE
  5
29D
  8
0
  6
CONTINUOUS
 62
     7
 10
207.897259397900001
 20
103.0355361831000067
 30
0.0
 11
209.990133959800005
 21
103.0355361831000067
 31
0.0
  0
LINE
  5
29E
  8
0
  6
CONTINUOUS
 62
     7
 10
212.990133959800005
 20
103.0355361831000067
 30
0.0
 11
217.3964549597999962
 21
103.0355361831000067
 31
0.0
  0
LINE
  5
2A1
  8
0
  6
CONTINUOUS
 62
     7
 10
35.4285439598000025
 20
103.5334626796999942
 30
0.0
 11
51.808263959899989
 21
103.5334626796999942
 31
0.0
  0
LINE
  5
2A2
  8
0
  6
CONTINUOUS
 62
     7
 10
59.2396339597999884
 20
103.5334626796999942
 30
0.0
 11
75.6206839597999902
 21
103.5334626796999942
 31
0.0
  0
LINE
  5
2A3
  8
0
  6
CONTINUOUS
 62
     7
 10
83.0536339597999813
 20
103.5334626796999942
 30
0.0
 11
99.4331839598000045
 21
103.5334626796999942
 31
0.0
  0
LINE
  5
2A4
  8
0
  6
CONTINUOUS
 62
     7
 10
154.4896339597999031
 20
103.5334626796999942
 30
0.0
 11
180.3963339599000051
 21
103.5334626796999942
 31
0.0
  0
LINE
  5
2A5
  8
0
  6
CONTINUOUS
 62
     7
 10
323.5598589598000103
 20
103.5369096797000026
 30
0.0
 11
337.5594089598000096
 21
103.5369096797000026
 31
0.0
  0
LINE
  5
2A6
  8
0
  6
CONTINUOUS
 62
     7
 10
342.6097839597999837
 20
103.5369096797000026
 30
0.0
 11
356.6093339597999829
 21
103.5369096797000026
 31
0.0
  0
LINE
  5
2A7
  8
0
  6
CONTINUOUS
 62
     7
 10
361.659783959799995
 20
103.5369096797000026
 30
0.0
 11
375.6593339597999943
 21
103.5369096797000026
 31
0.0
  0
LINE
  5
2A8
  8
0
  6
CONTINUOUS
 62
     7
 10
247.3587839598999949
 20
103.5376096796999974
 30
0.0
 11
263.7406339597999931
 21
103.5376096796999974
 31
0.0
  0
LINE
  5
2A9
  8
0
  6
CONTINUOUS
 62
     7
 10
271.1712839598999949
 20
103.5376096796999974
 30
0.0
 11
287.552633959800005
 21
103.5376096796999974
 31
0.0
  0
LINE
  5
2AA
  8
0
  6
CONTINUOUS
 62
     7
 10
294.9837839598000073
 20
103.5376096796999974
 30
0.0
 11
311.3656339597999931
 21
103.5376096796999974
 31
0.0
  0
LINE
  5
2AB
  8
0
  6
CONTINUOUS
 62
     7
 10
375.6593339597999943
 20
108.5868596796999981
 30
0.0
 11
361.659783959799995
 21
108.5868596796999981
 31
0.0
  0
LINE
  5
2AC
  8
0
  6
CONTINUOUS
 62
     7
 10
356.6093339597999829
 20
108.5868596796999981
 30
0.0
 11
342.6097839597999837
 21
108.5868596796999981
 31
0.0
  0
LINE
  5
2AD
  8
0
  6
CONTINUOUS
 62
     7
 10
337.5594089598000096
 20
108.5868596796999981
 30
0.0
 11
323.5598589598000103
 21
108.5868596796999981
 31
0.0
  0
LINE
  5
2AE
  8
0
  6
CONTINUOUS
 62
     7
 10
297.0776339597999822
 20
108.5872596796999972
 30
0.0
 11
283.0776339598000959
 21
108.5872596796999972
 31
0.0
  0
LINE
  5
2B0
  8
0
  6
CONTINUOUS
 62
     7
 10
261.3593339598000966
 20
108.5876596796999962
 30
0.0
 11
247.3597839598000121
 21
108.5876596796999962
 31
0.0
  0
LINE
  5
2B1
  8
0
  6
CONTINUOUS
 62
     7
 10
242.3093339598
 20
108.5876596796999962
 30
0.0
 11
228.3097839598000007
 21
108.5876596796999962
 31
0.0
  0
LINE
  5
2B2
  8
0
  6
CONTINUOUS
 62
     7
 10
223.2593339597999886
 20
108.5876596796999962
 30
0.0
 11
209.2597839597999894
 21
108.5876596796999962
 31
0.0
  0
LINE
  5
2B3
  8
0
  6
CONTINUOUS
 62
     7
 10
204.2094089597999869
 20
108.5876596796999962
 30
0.0
 11
190.2098589597999876
 21
108.5876596796999962
 31
0.0
  0
LINE
  5
2B4
  8
0
  6
CONTINUOUS
 62
     7
 10
185.1591839598000035
 20
108.5876596796999962
 30
0.0
 11
171.1596339598000043
 21
108.5876596796999962
 31
0.0
  0
LINE
  5
2B5
  8
0
  6
CONTINUOUS
 62
     7
 10
166.1091839597999922
 20
108.5876596796999962
 30
0.0
 11
152.1096339597999929
 21
108.5876596796999962
 31
0.0
  0
LINE
  5
2B6
  8
0
  6
CONTINUOUS
 62
     7
 10
147.0591839598000092
 20
108.5876596796999962
 30
0.0
 11
133.05963395980001
 21
108.5876596796999962
 31
0.0
  0
LINE
  5
2B7
  8
0
  6
CONTINUOUS
 62
     7
 10
128.0091839597999979
 20
108.5876596796999962
 30
0.0
 11
114.0096339597999986
 21
108.5876596796999962
 31
0.0
  0
LINE
  5
2B8
  8
0
  6
CONTINUOUS
 62
     7
 10
108.9591839598000007
 20
108.5876596796999962
 30
0.0
 11
94.9596339598000014
 21
108.5876596796999962
 31
0.0
  0
LINE
  5
2B9
  8
0
  6
CONTINUOUS
 62
     7
 10
89.9092589597999989
 20
108.5876596796999962
 30
0.0
 11
75.9097089597999855
 21
108.5876596796999962
 31
0.0
  0
LINE
  5
2BA
  8
0
  6
CONTINUOUS
 62
     7
 10
305.7956339598
 20
109.9072596797000045
 30
0.0
 11
303.5047947973000078
 21
109.9072596797000045
 31
0.0
  0
LINE
  5
2BB
  8
0
  6
CONTINUOUS
 62
     7
 10
300.5264731222999899
 20
109.9072596797000045
 30
0.0
 11
297.0776339597999822
 21
109.9072596797000045
 31
0.0
  0
LINE
  5
2BC
  8
0
  6
CONTINUOUS
 62
     7
 10
283.0776339598000959
 20
109.9072596797000045
 30
0.0
 11
279.5779947974000947
 21
109.9072596797000045
 31
0.0
  0
LINE
  5
2BD
  8
0
  6
CONTINUOUS
 62
     7
 10
276.5996731222999756
 20
109.9072596797000045
 30
0.0
 11
274.3596339599000089
 21
109.9072596797000045
 31
0.0
  0
LINE
  5
2C2
  8
0
  6
CONTINUOUS
 62
     7
 10
170.8716839598000092
 20
160.6876596797000047
 30
0.0
 11
170.8716839598000092
 21
146.6876596797000047
 31
0.0
  0
LINE
  5
2C3
  8
0
  6
CONTINUOUS
 62
     7
 10
170.8719089598000096
 20
203.5459626797000112
 30
0.0
 11
170.8719089598000096
 21
189.5459626797000112
 31
0.0
  0
LINE
  5
2C4
  8
0
  6
CONTINUOUS
 62
     7
 10
171.1596339598000043
 20
108.5876596796999962
 30
0.0
 11
171.1596339598000043
 21
122.5876596796999962
 31
0.0
  0
LINE
  5
2C5
  8
0
  6
CONTINUOUS
 62
     7
 10
175.6341839597999979
 20
141.6376596796999934
 30
0.0
 11
175.6341839597999979
 21
127.6376596796999934
 31
0.0
  0
LINE
  5
2C6
  8
0
  6
CONTINUOUS
 62
     7
 10
175.9222839598000121
 20
189.5459626797000112
 30
0.0
 11
175.9222839598000121
 21
203.5459626797000112
 31
0.0
  0
LINE
  5
2C7
  8
0
  6
CONTINUOUS
 62
     7
 10
175.9223589597999933
 20
146.6876596797000047
 30
0.0
 11
175.9223589597999933
 21
160.6876596797000047
 31
0.0
  0
LINE
  5
2C8
  8
0
  6
CONTINUOUS
 62
     7
 10
180.3958339598000009
 20
179.7376596796999024
 30
0.0
 11
180.3958339598000009
 21
165.7376596796999024
 31
0.0
  0
LINE
  5
2C9
  8
0
  6
CONTINUOUS
 62
     7
 10
180.3963339599000051
 20
103.5334626796999942
 30
0.0
 11
180.3963339599000051
 21
89.5376096796999832
 31
0.0
  0
LINE
  5
2CA
  8
0
  6
CONTINUOUS
 62
     7
 10
180.6848589598000103
 20
127.6376596796999934
 30
0.0
 11
180.6848589598000103
 21
141.6376596796999934
 31
0.0
  0
LINE
  5
2CD
  8
0
  6
CONTINUOUS
 62
     7
 10
274.3596339599000089
 20
121.267259679700004
 30
0.0
 11
283.0776339598000959
 21
121.267259679700004
 31
0.0
  0
LINE
  5
2CE
  8
0
  6
CONTINUOUS
 62
     7
 10
297.0776339597999822
 20
121.267259679700004
 30
0.0
 11
305.7956339598
 21
121.267259679700004
 31
0.0
  0
LINE
  5
2CF
  8
0
  6
CONTINUOUS
 62
     7
 10
323.5598589598000103
 20
122.5868596796999981
 30
0.0
 11
337.5594089598000096
 21
122.5868596796999981
 31
0.0
  0
LINE
  5
2D0
  8
0
  6
CONTINUOUS
 62
     7
 10
342.6097839597999837
 20
122.5868596796999981
 30
0.0
 11
356.6093339597999829
 21
122.5868596796999981
 31
0.0
  0
LINE
  5
2D1
  8
0
  6
CONTINUOUS
 62
     7
 10
361.659783959799995
 20
122.5868596796999981
 30
0.0
 11
375.6593339597999943
 21
122.5868596796999981
 31
0.0
  0
LINE
  5
2D3
  8
0
  6
CONTINUOUS
 62
     7
 10
283.0776339598000959
 20
122.5872596796999972
 30
0.0
 11
297.0776339597999822
 21
122.5872596796999972
 31
0.0
  0
LINE
  5
2D4
  8
0
  6
CONTINUOUS
 62
     7
 10
75.9097089597999855
 20
122.5876596796999962
 30
0.0
 11
89.9092589597999989
 21
122.5876596796999962
 31
0.0
  0
LINE
  5
2D5
  8
0
  6
CONTINUOUS
 62
     7
 10
94.9596339598000014
 20
122.5876596796999962
 30
0.0
 11
108.9591839598000007
 21
122.5876596796999962
 31
0.0
  0
LINE
  5
2D6
  8
0
  6
CONTINUOUS
 62
     7
 10
114.0096339597999986
 20
122.5876596796999962
 30
0.0
 11
128.0091839597999979
 21
122.5876596796999962
 31
0.0
  0
LINE
  5
2D7
  8
0
  6
CONTINUOUS
 62
     7
 10
133.05963395980001
 20
122.5876596796999962
 30
0.0
 11
147.0591839598000092
 21
122.5876596796999962
 31
0.0
  0
LINE
  5
2D8
  8
0
  6
CONTINUOUS
 62
     7
 10
152.1096339597999929
 20
122.5876596796999962
 30
0.0
 11
166.1091839597999922
 21
122.5876596796999962
 31
0.0
  0
LINE
  5
2D9
  8
0
  6
CONTINUOUS
 62
     7
 10
171.1596339598000043
 20
122.5876596796999962
 30
0.0
 11
185.1591839598000035
 21
122.5876596796999962
 31
0.0
  0
LINE
  5
2DA
  8
0
  6
CONTINUOUS
 62
     7
 10
190.2098589597999876
 20
122.5876596796999962
 30
0.0
 11
204.2094089597999869
 21
122.5876596796999962
 31
0.0
  0
LINE
  5
2DB
  8
0
  6
CONTINUOUS
 62
     7
 10
209.2597839597999894
 20
122.5876596796999962
 30
0.0
 11
223.2593339597999886
 21
122.5876596796999962
 31
0.0
  0
LINE
  5
2DC
  8
0
  6
CONTINUOUS
 62
     7
 10
228.3097839598000007
 20
122.5876596796999962
 30
0.0
 11
242.3093339598
 21
122.5876596796999962
 31
0.0
  0
LINE
  5
2DD
  8
0
  6
CONTINUOUS
 62
     7
 10
247.3597839598000121
 20
122.5876596796999962
 30
0.0
 11
261.3593339598000966
 21
122.5876596796999962
 31
0.0
  0
LINE
  5
2DE
  8
0
  6
CONTINUOUS
 62
     7
 10
185.1591839598000035
 20
122.5876596796999962
 30
0.0
 11
185.1591839598000035
 21
108.5876596796999962
 31
0.0
  0
LINE
  5
2DF
  8
0
  6
CONTINUOUS
 62
     7
 10
185.3963339599000051
 20
96.0334626796999942
 30
0.0
 11
185.3963339599000051
 21
97.0334626796999942
 31
0.0
  0
LINE
  5
2E0
  8
0
  6
CONTINUOUS
 62
     7
 10
185.446283959800013
 20
165.7376596796999024
 30
0.0
 11
185.446283959800013
 21
179.7376596796999024
 31
0.0
  0
LINE
  5
2E1
  8
0
  6
CONTINUOUS
 62
     7
 10
189.9218339597998124
 20
203.5459626797000112
 30
0.0
 11
189.9218339597998124
 21
189.5459626797000112
 31
0.0
  0
LINE
  5
2E2
  8
0
  6
CONTINUOUS
 62
     7
 10
189.9219089597999925
 20
160.6876596797000047
 30
0.0
 11
189.9219089597999925
 21
146.6876596797000047
 31
0.0
  0
LINE
  5
2E3
  8
0
  6
CONTINUOUS
 62
     7
 10
190.2098589597999876
 20
108.5876596796999962
 30
0.0
 11
190.2098589597999876
 21
122.5876596796999962
 31
0.0
  0
LINE
  5
2E4
  8
0
  6
CONTINUOUS
 62
     7
 10
53.9405339597999927
 20
127.6369596796999986
 30
0.0
 11
35.4278239598000013
 21
127.6369596796999986
 31
0.0
  0
LINE
  5
2E5
  8
0
  6
CONTINUOUS
 62
     7
 10
301.8401339598000277
 20
127.637309679699996
 30
0.0
 11
275.9347839599000167
 21
127.637309679699996
 31
0.0
  0
LINE
  5
2E6
  8
0
  6
CONTINUOUS
 62
     7
 10
270.8843339599000046
 20
127.6376596796999934
 30
0.0
 11
256.8847839599000054
 21
127.6376596796999934
 31
0.0
  0
LINE
  5
2E7
  8
0
  6
CONTINUOUS
 62
     7
 10
251.8343339598000057
 20
127.6376596796999934
 30
0.0
 11
237.8347839598000064
 21
127.6376596796999934
 31
0.0
  0
LINE
  5
2E8
  8
0
  6
CONTINUOUS
 62
     7
 10
232.7843339597999943
 20
127.6376596796999934
 30
0.0
 11
218.784783959799995
 21
127.6376596796999934
 31
0.0
  0
LINE
  5
2E9
  8
0
  6
CONTINUOUS
 62
     7
 10
213.7343339598000114
 20
127.6376596796999934
 30
0.0
 11
199.7347839597998131
 21
127.6376596796999934
 31
0.0
  0
LINE
  5
2EA
  8
0
  6
CONTINUOUS
 62
     7
 10
194.6844089598000096
 20
127.6376596796999934
 30
0.0
 11
180.6848589598000103
 21
127.6376596796999934
 31
0.0
  0
LINE
  5
2EB
  8
0
  6
CONTINUOUS
 62
     7
 10
175.6341839597999979
 20
127.6376596796999934
 30
0.0
 11
161.6346339597999986
 21
127.6376596796999934
 31
0.0
  0
LINE
  5
2EC
  8
0
  6
CONTINUOUS
 62
     7
 10
156.5841839597999012
 20
127.6376596796999934
 30
0.0
 11
142.5846339597999872
 21
127.6376596796999934
 31
0.0
  0
LINE
  5
2ED
  8
0
  6
CONTINUOUS
 62
     7
 10
137.5341839598000035
 20
127.6376596796999934
 30
0.0
 11
123.5346339598000043
 21
127.6376596796999934
 31
0.0
  0
LINE
  5
2EE
  8
0
  6
CONTINUOUS
 62
     7
 10
118.4841839598000064
 20
127.6376596796999934
 30
0.0
 11
104.4846339597999929
 21
127.6376596796999934
 31
0.0
  0
LINE
  5
2EF
  8
0
  6
CONTINUOUS
 62
     7
 10
99.434183959799995
 20
127.6376596796999934
 30
0.0
 11
85.4346339597999815
 21
127.6376596796999934
 31
0.0
  0
LINE
  5
2F0
  8
0
  6
CONTINUOUS
 62
     7
 10
80.3842589597999932
 20
127.6376596796999934
 30
0.0
 11
66.384708959799994
 21
127.6376596796999934
 31
0.0
  0
LINE
  5
2F1
  8
0
  6
CONTINUOUS
 62
     7
 10
310.5581339597999886
 20
128.4439596796999865
 30
0.0
 11
301.8401339598000277
 21
128.4439596796999865
 31
0.0
  0
LINE
  5
2F2
  8
0
  6
CONTINUOUS
 62
     7
 10
356.6096339598000213
 20
132.0905616789999897
 30
0.0
 11
323.55963395980001
 21
132.0905616789999897
 31
0.0
  0
LINE
  5
2F3
  8
0
  6
CONTINUOUS
 62
     7
 10
377.1524535564000189
 20
133.3262512068000092
 30
0.0
 11
366.0524535564001098
 21
133.3262512068000092
 31
0.0
  0
LINE
  5
2F4
  8
0
  6
CONTINUOUS
 62
     7
 10
194.6844089598000096
 20
141.6376596796999934
 30
0.0
 11
194.6844089598000096
 21
127.6376596796999934
 31
0.0
  0
LINE
  5
2F5
  8
0
  6
CONTINUOUS
 62
     7
 10
194.972283959799995
 20
146.6876596797000047
 30
0.0
 11
194.972283959799995
 21
160.6876596797000047
 31
0.0
  0
LINE
  5
2F6
  8
0
  6
CONTINUOUS
 62
     7
 10
194.972283959799995
 20
189.5459626797000112
 30
0.0
 11
194.972283959799995
 21
203.5459626797000112
 31
0.0
  0
LINE
  5
2F7
  8
0
  6
CONTINUOUS
 62
     7
 10
199.4458339598000123
 20
179.7376596796999024
 30
0.0
 11
199.4458339598000123
 21
165.7376596796999024
 31
0.0
  0
LINE
  5
2F8
  8
0
  6
CONTINUOUS
 62
     7
 10
199.7347839597998131
 20
127.6376596796999934
 30
0.0
 11
199.7347839597998131
 21
141.6376596796999934
 31
0.0
  0
LINE
  5
2F9
  8
0
  6
CONTINUOUS
 62
     7
 10
202.897259397900001
 20
97.0334626796999942
 30
0.0
 11
202.897259397900001
 21
96.0334626796999942
 31
0.0
  0
LINE
  5
2FA
  8
0
  6
CONTINUOUS
 62
     7
 10
204.2094089597999869
 20
122.5876596796999962
 30
0.0
 11
204.2094089597999869
 21
108.5876596796999962
 31
0.0
  0
LINE
  5
2FB
  8
0
  6
CONTINUOUS
 62
     7
 10
204.496283959799996
 20
165.7376596796999024
 30
0.0
 11
204.496283959799996
 21
179.7376596796999024
 31
0.0
  0
LINE
  5
2FC
  8
0
  6
CONTINUOUS
 62
     7
 10
158.5769189508999943
 20
80.4123343353000166
 30
0.0
 11
159.711167054899903
 21
82.376909679700006
 31
0.0
  0
LINE
  5
2FD
  8
0
  6
CONTINUOUS
 62
     7
 10
311.3646339598000168
 20
137.1619596797000042
 30
0.0
 11
310.5581339597999886
 21
137.1619596797000042
 31
0.0
  0
LINE
  5
2FE
  8
0
  6
CONTINUOUS
 62
     7
 10
366.0524535564001098
 20
138.9264863031999937
 30
0.0
 11
377.1524535564000189
 21
138.9264863031999937
 31
0.0
  0
LINE
  5
2FF
  8
0
  6
CONTINUOUS
 62
     7
 10
323.55963395980001
 20
139.6905616790000124
 30
0.0
 11
356.6096339598000213
 21
139.6905616790000124
 31
0.0
  0
LINE
  5
300
  8
0
  6
CONTINUOUS
 62
     7
 10
35.4278239598000013
 20
141.6369596796999986
 30
0.0
 11
53.9405339597999927
 21
141.6369596796999986
 31
0.0
  0
LINE
  5
301
  8
0
  6
CONTINUOUS
 62
     7
 10
275.9347839599000167
 20
141.637309679699996
 30
0.0
 11
297.3646339598000168
 21
141.637309679699996
 31
0.0
  0
LINE
  5
302
  8
0
  6
CONTINUOUS
 62
     7
 10
66.384708959799994
 20
141.6376596796999934
 30
0.0
 11
80.3842589597999932
 21
141.6376596796999934
 31
0.0
  0
LINE
  5
303
  8
0
  6
CONTINUOUS
 62
     7
 10
85.4346339597999815
 20
141.6376596796999934
 30
0.0
 11
99.434183959799995
 21
141.6376596796999934
 31
0.0
  0
LINE
  5
304
  8
0
  6
CONTINUOUS
 62
     7
 10
104.4846339597999929
 20
141.6376596796999934
 30
0.0
 11
118.4841839598000064
 21
141.6376596796999934
 31
0.0
  0
LINE
  5
305
  8
0
  6
CONTINUOUS
 62
     7
 10
123.5346339598000043
 20
141.6376596796999934
 30
0.0
 11
137.5341839598000035
 21
141.6376596796999934
 31
0.0
  0
LINE
  5
306
  8
0
  6
CONTINUOUS
 62
     7
 10
142.5846339597999872
 20
141.6376596796999934
 30
0.0
 11
156.5841839597999012
 21
141.6376596796999934
 31
0.0
  0
LINE
  5
307
  8
0
  6
CONTINUOUS
 62
     7
 10
161.6346339597999986
 20
141.6376596796999934
 30
0.0
 11
175.6341839597999979
 21
141.6376596796999934
 31
0.0
  0
LINE
  5
308
  8
0
  6
CONTINUOUS
 62
     7
 10
180.6848589598000103
 20
141.6376596796999934
 30
0.0
 11
194.6844089598000096
 21
141.6376596796999934
 31
0.0
  0
LINE
  5
309
  8
0
  6
CONTINUOUS
 62
     7
 10
199.7347839597998131
 20
141.6376596796999934
 30
0.0
 11
213.7343339598000114
 21
141.6376596796999934
 31
0.0
  0
LINE
  5
30A
  8
0
  6
CONTINUOUS
 62
     7
 10
218.784783959799995
 20
141.6376596796999934
 30
0.0
 11
232.7843339597999943
 21
141.6376596796999934
 31
0.0
  0
LINE
  5
30B
  8
0
  6
CONTINUOUS
 62
     7
 10
237.8347839598000064
 20
141.6376596796999934
 30
0.0
 11
251.8343339598000057
 21
141.6376596796999934
 31
0.0
  0
LINE
  5
30C
  8
0
  6
CONTINUOUS
 62
     7
 10
256.8847839599000054
 20
141.6376596796999934
 30
0.0
 11
270.8843339599000046
 21
141.6376596796999934
 31
0.0
  0
LINE
  5
30D
  8
0
  6
CONTINUOUS
 62
     7
 10
375.6593339597999943
 20
146.6869596797000099
 30
0.0
 11
361.659783959799995
 21
146.6869596797000099
 31
0.0
  0
LINE
  5
30E
  8
0
  6
CONTINUOUS
 62
     7
 10
356.6093339597999829
 20
146.6869596797000099
 30
0.0
 11
342.6097839597999837
 21
146.6869596797000099
 31
0.0
  0
LINE
  5
30F
  8
0
  6
CONTINUOUS
 62
     7
 10
337.5594089598000096
 20
146.6869596797000099
 30
0.0
 11
323.5598589598000103
 21
146.6869596797000099
 31
0.0
  0
LINE
  5
310
  8
0
  6
CONTINUOUS
 62
     7
 10
51.8093389597999874
 20
146.6869596797000099
 30
0.0
 11
37.8097889598000094
 21
146.6869596797000099
 31
0.0
  0
LINE
  5
311
  8
0
  6
CONTINUOUS
 62
     7
 10
297.3646339598000168
 20
146.6876596797000047
 30
0.0
 11
294.9837839598000073
 21
146.6876596797000047
 31
0.0
  0
LINE
  5
312
  8
0
  6
CONTINUOUS
 62
     7
 10
285.1718339599000274
 20
146.6876596797000047
 30
0.0
 11
271.1722839599000281
 21
146.6876596797000047
 31
0.0
  0
LINE
  5
313
  8
0
  6
CONTINUOUS
 62
     7
 10
266.121833959900016
 20
146.6876596797000047
 30
0.0
 11
252.1222839598999883
 21
146.6876596797000047
 31
0.0
  0
LINE
  5
314
  8
0
  6
CONTINUOUS
 62
     7
 10
247.0718339597999886
 20
146.6876596797000047
 30
0.0
 11
233.0722839597999894
 21
146.6876596797000047
 31
0.0
  0
LINE
  5
315
  8
0
  6
CONTINUOUS
 62
     7
 10
228.0218339598000057
 20
146.6876596797000047
 30
0.0
 11
214.0222839598000064
 21
146.6876596797000047
 31
0.0
  0
LINE
  5
316
  8
0
  6
CONTINUOUS
 62
     7
 10
208.9718339597999943
 20
146.6876596797000047
 30
0.0
 11
194.972283959799995
 21
146.6876596797000047
 31
0.0
  0
LINE
  5
317
  8
0
  6
CONTINUOUS
 62
     7
 10
189.9219089597999925
 20
146.6876596797000047
 30
0.0
 11
175.9223589597999933
 21
146.6876596797000047
 31
0.0
  0
LINE
  5
318
  8
0
  6
CONTINUOUS
 62
     7
 10
170.8716839598000092
 20
146.6876596797000047
 30
0.0
 11
156.872133959799811
 21
146.6876596797000047
 31
0.0
  0
LINE
  5
319
  8
0
  6
CONTINUOUS
 62
     7
 10
151.8216839597999979
 20
146.6876596797000047
 30
0.0
 11
137.8221339597999986
 21
146.6876596797000047
 31
0.0
  0
LINE
  5
31A
  8
0
  6
CONTINUOUS
 62
     7
 10
132.7716839597999865
 20
146.6876596797000047
 30
0.0
 11
118.7721339598000014
 21
146.6876596797000047
 31
0.0
  0
LINE
  5
31B
  8
0
  6
CONTINUOUS
 62
     7
 10
113.7216839598000035
 20
146.6876596797000047
 30
0.0
 11
99.7221339598000043
 21
146.6876596797000047
 31
0.0
  0
LINE
  5
31C
  8
0
  6
CONTINUOUS
 62
     7
 10
94.6716839598000064
 20
146.6876596797000047
 30
0.0
 11
80.6721339597999929
 21
146.6876596797000047
 31
0.0
  0
LINE
  5
31D
  8
0
  6
CONTINUOUS
 62
     7
 10
75.6217589597999904
 20
146.6876596797000047
 30
0.0
 11
61.6222089597999982
 21
146.6876596797000047
 31
0.0
  0
LINE
  5
31E
  8
0
  6
CONTINUOUS
 62
     7
 10
135.3120028717999901
 20
210.6907522285000027
 30
0.0
 11
133.1116751849999957
 21
212.8910799152999971
 31
0.0
  0
LINE
  5
31F
  8
0
  6
CONTINUOUS
 62
     7
 10
207.897259397900001
 20
90.0355361830999641
 30
0.0
 11
207.897259397900001
 21
103.0355361831000067
 31
0.0
  0
LINE
  5
320
  8
0
  6
CONTINUOUS
 62
     7
 10
208.9718339597999943
 20
203.5459626797000112
 30
0.0
 11
208.9718339597999943
 21
189.5459626797000112
 31
0.0
  0
LINE
  5
321
  8
0
  6
CONTINUOUS
 62
     7
 10
208.9718339597999943
 20
160.6876596797000047
 30
0.0
 11
208.9718339597999943
 21
146.6876596797000047
 31
0.0
  0
LINE
  5
322
  8
0
  6
CONTINUOUS
 62
     7
 10
209.2597839597999894
 20
108.5876596796999962
 30
0.0
 11
209.2597839597999894
 21
122.5876596796999962
 31
0.0
  0
LINE
  5
323
  8
0
  6
CONTINUOUS
 62
     7
 10
213.7343339598000114
 20
141.6376596796999934
 30
0.0
 11
213.7343339598000114
 21
127.6376596796999934
 31
0.0
  0
LINE
  5
324
  8
0
  6
CONTINUOUS
 62
     7
 10
214.0222839598000064
 20
146.6876596797000047
 30
0.0
 11
214.0222839598000064
 21
160.6876596797000047
 31
0.0
  0
LINE
  5
325
  8
0
  6
CONTINUOUS
 62
     7
 10
214.0222839598000064
 20
189.5459626797000112
 30
0.0
 11
214.0222839598000064
 21
203.5459626797000112
 31
0.0
  0
LINE
  5
326
  8
0
  6
CONTINUOUS
 62
     7
 10
217.3964549597999962
 20
103.0355361831000067
 30
0.0
 11
217.3964549597999962
 21
90.0355361830999641
 31
0.0
  0
LINE
  5
327
  8
0
  6
CONTINUOUS
 62
     7
 10
218.4958339597999952
 20
179.7376596796999024
 30
0.0
 11
218.4958339597999952
 21
165.7376596796999024
 31
0.0
  0
LINE
  5
328
  8
0
  6
CONTINUOUS
 62
     7
 10
275.5932319282999856
 20
212.8910799152999971
 30
0.0
 11
273.3929042414999913
 21
210.6907522285000027
 31
0.0
  0
LINE
  5
329
  8
0
  6
CONTINUOUS
 62
     7
 10
310.0446339598000236
 20
151.1619596797000042
 30
0.0
 11
311.3646339598000168
 21
151.1619596797000042
 31
0.0
  0
LINE
  5
32A
  8
0
  6
CONTINUOUS
 62
     7
 10
37.8097889598000094
 20
160.6869596797000099
 30
0.0
 11
51.8093389597999874
 21
160.6869596797000099
 31
0.0
  0
LINE
  5
32B
  8
0
  6
CONTINUOUS
 62
     7
 10
323.5598589598000103
 20
160.6869596797000099
 30
0.0
 11
337.5594089598000096
 21
160.6869596797000099
 31
0.0
  0
LINE
  5
32C
  8
0
  6
CONTINUOUS
 62
     7
 10
342.6097839597999837
 20
160.6869596797000099
 30
0.0
 11
356.6093339597999829
 21
160.6869596797000099
 31
0.0
  0
LINE
  5
32D
  8
0
  6
CONTINUOUS
 62
     7
 10
361.659783959799995
 20
160.6869596797000099
 30
0.0
 11
375.6593339597999943
 21
160.6869596797000099
 31
0.0
  0
LINE
  5
32E
  8
0
  6
CONTINUOUS
 62
     7
 10
61.6222089597999982
 20
160.6876596797000047
 30
0.0
 11
75.6217589597999904
 21
160.6876596797000047
 31
0.0
  0
LINE
  5
32F
  8
0
  6
CONTINUOUS
 62
     7
 10
80.6721339597999929
 20
160.6876596797000047
 30
0.0
 11
94.6716839598000064
 21
160.6876596797000047
 31
0.0
  0
LINE
  5
330
  8
0
  6
CONTINUOUS
 62
     7
 10
99.7221339598000043
 20
160.6876596797000047
 30
0.0
 11
113.7216839598000035
 21
160.6876596797000047
 31
0.0
  0
LINE
  5
331
  8
0
  6
CONTINUOUS
 62
     7
 10
118.7721339598000014
 20
160.6876596797000047
 30
0.0
 11
132.7716839597999865
 21
160.6876596797000047
 31
0.0
  0
LINE
  5
332
  8
0
  6
CONTINUOUS
 62
     7
 10
137.8221339597999986
 20
160.6876596797000047
 30
0.0
 11
151.8216839597999979
 21
160.6876596797000047
 31
0.0
  0
LINE
  5
333
  8
0
  6
CONTINUOUS
 62
     7
 10
156.872133959799811
 20
160.6876596797000047
 30
0.0
 11
170.8716839598000092
 21
160.6876596797000047
 31
0.0
  0
LINE
  5
334
  8
0
  6
CONTINUOUS
 62
     7
 10
175.9223589597999933
 20
160.6876596797000047
 30
0.0
 11
189.9219089597999925
 21
160.6876596797000047
 31
0.0
  0
LINE
  5
335
  8
0
  6
CONTINUOUS
 62
     7
 10
194.972283959799995
 20
160.6876596797000047
 30
0.0
 11
208.9718339597999943
 21
160.6876596797000047
 31
0.0
  0
LINE
  5
336
  8
0
  6
CONTINUOUS
 62
     7
 10
214.0222839598000064
 20
160.6876596797000047
 30
0.0
 11
228.0218339598000057
 21
160.6876596797000047
 31
0.0
  0
LINE
  5
337
  8
0
  6
CONTINUOUS
 62
     7
 10
233.0722839597999894
 20
160.6876596797000047
 30
0.0
 11
247.0718339597999886
 21
160.6876596797000047
 31
0.0
  0
LINE
  5
338
  8
0
  6
CONTINUOUS
 62
     7
 10
252.1222839598999883
 20
160.6876596797000047
 30
0.0
 11
266.121833959900016
 21
160.6876596797000047
 31
0.0
  0
LINE
  5
339
  8
0
  6
CONTINUOUS
 62
     7
 10
271.1722839599000281
 20
160.6876596797000047
 30
0.0
 11
285.1718339599000274
 21
160.6876596797000047
 31
0.0
  0
LINE
  5
33A
  8
0
  6
CONTINUOUS
 62
     7
 10
294.9837839598000073
 20
160.6876596797000047
 30
0.0
 11
310.0446339598000236
 21
160.6876596797000047
 31
0.0
  0
LINE
  5
33B
  8
0
  6
CONTINUOUS
 62
     7
 10
248.9937400583000056
 20
82.376909679700006
 30
0.0
 11
250.1279881622000119
 21
80.4123343353000166
 31
0.0
  0
LINE
  5
33C
  8
0
  6
CONTINUOUS
 62
     7
 10
218.784783959799995
 20
127.6376596796999934
 30
0.0
 11
218.784783959799995
 21
141.6376596796999934
 31
0.0
  0
LINE
  5
33D
  8
0
  6
CONTINUOUS
 62
     7
 10
223.2593339597999886
 20
122.5876596796999962
 30
0.0
 11
223.2593339597999886
 21
108.5876596796999962
 31
0.0
  0
LINE
  5
33E
  8
0
  6
CONTINUOUS
 62
     7
 10
223.5462839598999949
 20
165.7376596796999024
 30
0.0
 11
223.5462839598999949
 21
179.7376596796999024
 31
0.0
  0
LINE
  5
340
  8
0
  6
CONTINUOUS
 62
     7
 10
228.0218339598000057
 20
203.5459626797000112
 30
0.0
 11
228.0218339598000057
 21
189.5459626797000112
 31
0.0
  0
LINE
  5
341
  8
0
  6
CONTINUOUS
 62
     7
 10
228.0218339598000057
 20
185.1409626797000101
 30
0.0
 11
228.0218339598000057
 21
184.1409626797000101
 31
0.0
  0
LINE
  5
342
  8
0
  6
CONTINUOUS
 62
     7
 10
228.0218339598000057
 20
160.6876596797000047
 30
0.0
 11
228.0218339598000057
 21
146.6876596797000047
 31
0.0
  0
LINE
  5
343
  8
0
  6
CONTINUOUS
 62
     7
 10
228.3097839598000007
 20
108.5876596796999962
 30
0.0
 11
228.3097839598000007
 21
122.5876596796999962
 31
0.0
  0
LINE
  5
344
  8
0
  6
CONTINUOUS
 62
     7
 10
375.6593339597999943
 20
165.7369596796999929
 30
0.0
 11
361.659783959799995
 21
165.7369596796999929
 31
0.0
  0
LINE
  5
345
  8
0
  6
CONTINUOUS
 62
     7
 10
356.6093339597999829
 20
165.7369596796999929
 30
0.0
 11
342.6097839597999837
 21
165.7369596796999929
 31
0.0
  0
LINE
  5
346
  8
0
  6
CONTINUOUS
 62
     7
 10
337.5594089598000096
 20
165.7369596796999929
 30
0.0
 11
323.5598589598000103
 21
165.7369596796999929
 31
0.0
  0
LINE
  5
347
  8
0
  6
CONTINUOUS
 62
     7
 10
304.2221339597999759
 20
165.7373096796999903
 30
0.0
 11
290.2221339597999759
 21
165.7373096796999903
 31
0.0
  0
LINE
  5
348
  8
0
  6
CONTINUOUS
 62
     7
 10
275.6458339599000169
 20
165.7376596796999024
 30
0.0
 11
261.6462839599000176
 21
165.7376596796999024
 31
0.0
  0
LINE
  5
349
  8
0
  6
CONTINUOUS
 62
     7
 10
256.5958339599000055
 20
165.7376596796999024
 30
0.0
 11
242.5962839599000063
 21
165.7376596796999024
 31
0.0
  0
LINE
  5
34A
  8
0
  6
CONTINUOUS
 62
     7
 10
237.5458339598999942
 20
165.7376596796999024
 30
0.0
 11
223.5462839598999949
 21
165.7376596796999024
 31
0.0
  0
LINE
  5
34B
  8
0
  6
CONTINUOUS
 62
     7
 10
218.4958339597999952
 20
165.7376596796999024
 30
0.0
 11
204.496283959799996
 21
165.7376596796999024
 31
0.0
  0
LINE
  5
34C
  8
0
  6
CONTINUOUS
 62
     7
 10
199.4458339598000123
 20
165.7376596796999024
 30
0.0
 11
185.446283959800013
 21
165.7376596796999024
 31
0.0
  0
LINE
  5
34D
  8
0
  6
CONTINUOUS
 62
     7
 10
180.3958339598000009
 20
165.7376596796999024
 30
0.0
 11
166.3962839598000016
 21
165.7376596796999024
 31
0.0
  0
LINE
  5
34E
  8
0
  6
CONTINUOUS
 62
     7
 10
161.3459089597999991
 20
165.7376596796999024
 30
0.0
 11
147.3463589597999999
 21
165.7376596796999024
 31
0.0
  0
LINE
  5
34F
  8
0
  6
CONTINUOUS
 62
     7
 10
142.2967589598000018
 20
165.7376596796999024
 30
0.0
 11
128.2972089598000025
 21
165.7376596796999024
 31
0.0
  0
LINE
  5
350
  8
0
  6
CONTINUOUS
 62
     7
 10
123.2467589598000046
 20
165.7376596796999024
 30
0.0
 11
109.2472089598000053
 21
165.7376596796999024
 31
0.0
  0
LINE
  5
351
  8
0
  6
CONTINUOUS
 62
     7
 10
104.1967589597999932
 20
165.7376596796999024
 30
0.0
 11
90.197208959799994
 21
165.7376596796999024
 31
0.0
  0
LINE
  5
352
  8
0
  6
CONTINUOUS
 62
     7
 10
85.1467589597999819
 20
165.7376596796999024
 30
0.0
 11
71.1472089597999968
 21
165.7376596796999024
 31
0.0
  0
LINE
  5
353
  8
0
  6
CONTINUOUS
 62
     7
 10
66.0967589597999989
 20
165.7376596796999024
 30
0.0
 11
52.0972089597999926
 21
165.7376596796999024
 31
0.0
  0
LINE
  5
354
  8
0
  6
CONTINUOUS
 62
     7
 10
47.0468339597999972
 20
165.7376596796999024
 30
0.0
 11
33.0472839597999979
 21
165.7376596796999024
 31
0.0
  0
LINE
  5
355
  8
0
  6
CONTINUOUS
 62
     7
 10
312.9401339597999936
 20
167.0573096797000119
 30
0.0
 11
310.6492947972998877
 21
167.0573096797000119
 31
0.0
  0
LINE
  5
356
  8
0
  6
CONTINUOUS
 62
     7
 10
307.6709731222999835
 20
167.0573096797000119
 30
0.0
 11
304.2221339597999759
 21
167.0573096797000119
 31
0.0
  0
LINE
  5
357
  8
0
  6
CONTINUOUS
 62
     7
 10
290.2221339597999759
 20
167.0573096797000119
 30
0.0
 11
286.7224947973999747
 21
167.0573096797000119
 31
0.0
  0
LINE
  5
358
  8
0
  6
CONTINUOUS
 62
     7
 10
283.7441731223000261
 20
167.0573096797000119
 30
0.0
 11
281.5041339599000025
 21
167.0573096797000119
 31
0.0
  0
LINE
  5
359
  8
0
  6
CONTINUOUS
 62
     7
 10
232.7843339597999943
 20
141.6376596796999934
 30
0.0
 11
232.7843339597999943
 21
127.6376596796999934
 31
0.0
  0
LINE
  5
35A
  8
0
  6
CONTINUOUS
 62
     7
 10
233.0218339598000057
 20
189.5459626797000112
 30
0.0
 11
233.0218339598000057
 21
203.5459626797000112
 31
0.0
  0
LINE
  5
35B
  8
0
  6
CONTINUOUS
 62
     7
 10
233.0722839597999894
 20
146.6876596797000047
 30
0.0
 11
233.0722839597999894
 21
160.6876596797000047
 31
0.0
  0
LINE
  5
35D
  8
0
  6
CONTINUOUS
 62
     7
 10
237.5458339598999942
 20
179.7376596796999024
 30
0.0
 11
237.5458339598999942
 21
165.7376596796999024
 31
0.0
  0
LINE
  5
35E
  8
0
  6
CONTINUOUS
 62
     7
 10
237.5973589598000046
 20
203.5459626797000112
 30
0.0
 11
237.5973589598000046
 21
189.5459626797000112
 31
0.0
  0
LINE
  5
35F
  8
0
  6
CONTINUOUS
 62
     7
 10
237.8347839598000064
 20
127.6376596796999934
 30
0.0
 11
237.8347839598000064
 21
141.6376596796999934
 31
0.0
  0
LINE
  5
360
  8
0
  6
CONTINUOUS
 62
     7
 10
242.3093339598
 20
122.5876596796999962
 30
0.0
 11
242.3093339598
 21
108.5876596796999962
 31
0.0
  0
LINE
  5
361
  8
0
  6
CONTINUOUS
 62
     7
 10
242.5962839599000063
 20
165.7376596796999024
 30
0.0
 11
242.5962839599000063
 21
179.7376596796999024
 31
0.0
  0
LINE
  5
362
  8
0
  6
CONTINUOUS
 62
     7
 10
242.5973589598000046
 20
184.1409626797000101
 30
0.0
 11
242.5973589598000046
 21
185.1409626797000101
 31
0.0
  0
LINE
  5
363
  8
0
  6
CONTINUOUS
 62
     7
 10
242.5973589598000046
 20
189.5459626797000112
 30
0.0
 11
242.5973589598000046
 21
203.5459626797000112
 31
0.0
  0
LINE
  5
364
  8
0
  6
CONTINUOUS
 62
     7
 10
281.5041339599000025
 20
178.4173096796999971
 30
0.0
 11
290.2221339597999759
 21
178.4173096796999971
 31
0.0
  0
LINE
  5
365
  8
0
  6
CONTINUOUS
 62
     7
 10
304.2221339597999759
 20
178.4173096796999971
 30
0.0
 11
312.9401339597999936
 21
178.4173096796999971
 31
0.0
  0
LINE
  5
366
  8
0
  6
CONTINUOUS
 62
     7
 10
323.5598589598000103
 20
179.7369596796999929
 30
0.0
 11
337.5594089598000096
 21
179.7369596796999929
 31
0.0
  0
LINE
  5
367
  8
0
  6
CONTINUOUS
 62
     7
 10
342.6097839597999837
 20
179.7369596796999929
 30
0.0
 11
356.6093339597999829
 21
179.7369596796999929
 31
0.0
  0
LINE
  5
368
  8
0
  6
CONTINUOUS
 62
     7
 10
361.659783959799995
 20
179.7369596796999929
 30
0.0
 11
375.6593339597999943
 21
179.7369596796999929
 31
0.0
  0
LINE
  5
369
  8
0
  6
CONTINUOUS
 62
     7
 10
290.2221339597999759
 20
179.7373096796999903
 30
0.0
 11
304.2221339597999759
 21
179.7373096796999903
 31
0.0
  0
LINE
  5
36A
  8
0
  6
CONTINUOUS
 62
     7
 10
33.0472839597999979
 20
179.7376596796999024
 30
0.0
 11
47.0468339597999972
 21
179.7376596796999024
 31
0.0
  0
LINE
  5
36B
  8
0
  6
CONTINUOUS
 62
     7
 10
52.0972089597999926
 20
179.7376596796999024
 30
0.0
 11
66.0967589597999989
 21
179.7376596796999024
 31
0.0
  0
LINE
  5
36C
  8
0
  6
CONTINUOUS
 62
     7
 10
71.1472089597999968
 20
179.7376596796999024
 30
0.0
 11
85.1467589597999819
 21
179.7376596796999024
 31
0.0
  0
LINE
  5
36D
  8
0
  6
CONTINUOUS
 62
     7
 10
90.197208959799994
 20
179.7376596796999024
 30
0.0
 11
104.1967589597999932
 21
179.7376596796999024
 31
0.0
  0
LINE
  5
36E
  8
0
  6
CONTINUOUS
 62
     7
 10
109.2472089598000053
 20
179.7376596796999024
 30
0.0
 11
123.2467589598000046
 21
179.7376596796999024
 31
0.0
  0
LINE
  5
36F
  8
0
  6
CONTINUOUS
 62
     7
 10
128.2972089598000025
 20
179.7376596796999024
 30
0.0
 11
142.2967589598000018
 21
179.7376596796999024
 31
0.0
  0
LINE
  5
370
  8
0
  6
CONTINUOUS
 62
     7
 10
147.3463589597999999
 20
179.7376596796999024
 30
0.0
 11
161.3459089597999991
 21
179.7376596796999024
 31
0.0
  0
LINE
  5
371
  8
0
  6
CONTINUOUS
 62
     7
 10
166.3962839598000016
 20
179.7376596796999024
 30
0.0
 11
180.3958339598000009
 21
179.7376596796999024
 31
0.0
  0
LINE
  5
372
  8
0
  6
CONTINUOUS
 62
     7
 10
185.446283959800013
 20
179.7376596796999024
 30
0.0
 11
199.4458339598000123
 21
179.7376596796999024
 31
0.0
  0
LINE
  5
373
  8
0
  6
CONTINUOUS
 62
     7
 10
204.496283959799996
 20
179.7376596796999024
 30
0.0
 11
218.4958339597999952
 21
179.7376596796999024
 31
0.0
  0
LINE
  5
374
  8
0
  6
CONTINUOUS
 62
     7
 10
223.5462839598999949
 20
179.7376596796999024
 30
0.0
 11
237.5458339598999942
 21
179.7376596796999024
 31
0.0
  0
LINE
  5
375
  8
0
  6
CONTINUOUS
 62
     7
 10
242.5962839599000063
 20
179.7376596796999024
 30
0.0
 11
256.5958339599000055
 21
179.7376596796999024
 31
0.0
  0
LINE
  5
376
  8
0
  6
CONTINUOUS
 62
     7
 10
261.6462839599000176
 20
179.7376596796999024
 30
0.0
 11
275.6458339599000169
 21
179.7376596796999024
 31
0.0
  0
LINE
  5
377
  8
0
  6
CONTINUOUS
 62
     7
 10
375.6596339597999759
 20
184.1409626797000101
 30
0.0
 11
323.55963395980001
 21
184.1409626797000101
 31
0.0
  0
LINE
  5
378
  8
0
  6
CONTINUOUS
 62
     7
 10
313.7466339598000218
 20
184.1409626797000101
 30
0.0
 11
242.5973589598000046
 21
184.1409626797000101
 31
0.0
  0
LINE
  5
379
  8
0
  6
CONTINUOUS
 62
     7
 10
228.0218339598000057
 20
184.1409626797000101
 30
0.0
 11
156.8723589598000103
 21
184.1409626797000101
 31
0.0
  0
LINE
  5
37A
  8
0
  6
CONTINUOUS
 62
     7
 10
142.2967589598000018
 20
184.1409626797000101
 30
0.0
 11
33.0472839597999979
 21
184.1409626797000101
 31
0.0
  0
LINE
  5
37B
  8
0
  6
CONTINUOUS
 62
     7
 10
33.0472839597999979
 20
185.1409626797000101
 30
0.0
 11
142.2967589598000018
 21
185.1409626797000101
 31
0.0
  0
LINE
  5
37C
  8
0
  6
CONTINUOUS
 62
     7
 10
156.8723589598000103
 20
185.1409626797000101
 30
0.0
 11
228.0218339598000057
 21
185.1409626797000101
 31
0.0
  0
LINE
  5
37D
  8
0
  6
CONTINUOUS
 62
     7
 10
242.5973589598000046
 20
185.1409626797000101
 30
0.0
 11
313.7466339598000218
 21
185.1409626797000101
 31
0.0
  0
LINE
  5
37E
  8
0
  6
CONTINUOUS
 62
     7
 10
323.55963395980001
 20
185.1409626797000101
 30
0.0
 11
375.6596339597999759
 21
185.1409626797000101
 31
0.0
  0
LINE
  5
37F
  8
0
  6
CONTINUOUS
 62
     7
 10
247.0718339597999886
 20
160.6876596797000047
 30
0.0
 11
247.0718339597999886
 21
146.6876596797000047
 31
0.0
  0
LINE
  5
380
  8
0
  6
CONTINUOUS
 62
     7
 10
247.3587839598999949
 20
89.5339926796999634
 30
0.0
 11
247.3587839598999949
 21
103.5376096796999974
 31
0.0
  0
LINE
  5
381
  8
0
  6
CONTINUOUS
 62
     7
 10
247.3597839598000121
 20
108.5876596796999962
 30
0.0
 11
247.3597839598000121
 21
122.5876596796999962
 31
0.0
  0
LINE
  5
382
  8
0
  6
CONTINUOUS
 62
     7
 10
251.8343339598000057
 20
141.6376596796999934
 30
0.0
 11
251.8343339598000057
 21
127.6376596796999934
 31
0.0
  0
LINE
  5
383
  8
0
  6
CONTINUOUS
 62
     7
 10
252.1222839598999883
 20
146.6876596797000047
 30
0.0
 11
252.1222839598999883
 21
160.6876596797000047
 31
0.0
  0
LINE
  5
384
  8
0
  6
CONTINUOUS
 62
     7
 10
375.6593339597999943
 20
189.5459626797000112
 30
0.0
 11
361.659783959799995
 21
189.5459626797000112
 31
0.0
  0
LINE
  5
385
  8
0
  6
CONTINUOUS
 62
     7
 10
356.6093339597999829
 20
189.5459626797000112
 30
0.0
 11
342.6097839597999837
 21
189.5459626797000112
 31
0.0
  0
LINE
  5
386
  8
0
  6
CONTINUOUS
 62
     7
 10
337.5594089598000096
 20
189.5459626797000112
 30
0.0
 11
323.5598589598000103
 21
189.5459626797000112
 31
0.0
  0
LINE
  5
387
  8
0
  6
CONTINUOUS
 62
     7
 10
313.7468339597999716
 20
189.5459626797000112
 30
0.0
 11
299.7472839597999723
 21
189.5459626797000112
 31
0.0
  0
LINE
  5
388
  8
0
  6
CONTINUOUS
 62
     7
 10
294.6968339598000171
 20
189.5459626797000112
 30
0.0
 11
280.6972839598000178
 21
189.5459626797000112
 31
0.0
  0
LINE
  5
389
  8
0
  6
CONTINUOUS
 62
     7
 10
275.6468339598000057
 20
189.5459626797000112
 30
0.0
 11
261.6472839598000064
 21
189.5459626797000112
 31
0.0
  0
LINE
  5
38A
  8
0
  6
CONTINUOUS
 62
     7
 10
256.5969089597999755
 20
189.5459626797000112
 30
0.0
 11
242.5973589598000046
 21
189.5459626797000112
 31
0.0
  0
LINE
  5
38B
  8
0
  6
CONTINUOUS
 62
     7
 10
237.5973589598000046
 20
189.5459626797000112
 30
0.0
 11
233.0218339598000057
 21
189.5459626797000112
 31
0.0
  0
LINE
  5
38C
  8
0
  6
CONTINUOUS
 62
     7
 10
228.0218339598000057
 20
189.5459626797000112
 30
0.0
 11
214.0222839598000064
 21
189.5459626797000112
 31
0.0
  0
LINE
  5
38D
  8
0
  6
CONTINUOUS
 62
     7
 10
208.9718339597999943
 20
189.5459626797000112
 30
0.0
 11
194.972283959799995
 21
189.5459626797000112
 31
0.0
  0
LINE
  5
38E
  8
0
  6
CONTINUOUS
 62
     7
 10
189.9218339597998124
 20
189.5459626797000112
 30
0.0
 11
175.9222839598000121
 21
189.5459626797000112
 31
0.0
  0
LINE
  5
38F
  8
0
  6
CONTINUOUS
 62
     7
 10
170.8719089598000096
 20
189.5459626797000112
 30
0.0
 11
156.8723589598000103
 21
189.5459626797000112
 31
0.0
  0
LINE
  5
390
  8
0
  6
CONTINUOUS
 62
     7
 10
151.8723589598000103
 20
189.5459626797000112
 30
0.0
 11
147.2967589598000018
 21
189.5459626797000112
 31
0.0
  0
LINE
  5
391
  8
0
  6
CONTINUOUS
 62
     7
 10
142.2967589598000018
 20
189.5459626797000112
 30
0.0
 11
128.2972089598000025
 21
189.5459626797000112
 31
0.0
  0
LINE
  5
392
  8
0
  6
CONTINUOUS
 62
     7
 10
123.2467589598000046
 20
189.5459626797000112
 30
0.0
 11
109.2472089598000053
 21
189.5459626797000112
 31
0.0
  0
LINE
  5
393
  8
0
  6
CONTINUOUS
 62
     7
 10
104.1967589597999932
 20
189.5459626797000112
 30
0.0
 11
90.197208959799994
 21
189.5459626797000112
 31
0.0
  0
LINE
  5
394
  8
0
  6
CONTINUOUS
 62
     7
 10
85.1467589597999819
 20
189.5459626797000112
 30
0.0
 11
71.1472089597999968
 21
189.5459626797000112
 31
0.0
  0
LINE
  5
395
  8
0
  6
CONTINUOUS
 62
     7
 10
66.0967589597999989
 20
189.5459626797000112
 30
0.0
 11
52.0972089597999926
 21
189.5459626797000112
 31
0.0
  0
LINE
  5
396
  8
0
  6
CONTINUOUS
 62
     7
 10
47.0468339597999972
 20
189.5459626797000112
 30
0.0
 11
33.0472839597999979
 21
189.5459626797000112
 31
0.0
  0
LINE
  5
397
  8
0
  6
CONTINUOUS
 62
     7
 10
256.5958339599000055
 20
179.7376596796999024
 30
0.0
 11
256.5958339599000055
 21
165.7376596796999024
 31
0.0
  0
LINE
  5
398
  8
0
  6
CONTINUOUS
 62
     7
 10
256.5969089597999755
 20
203.5459626797000112
 30
0.0
 11
256.5969089597999755
 21
189.5459626797000112
 31
0.0
  0
LINE
  5
399
  8
0
  6
CONTINUOUS
 62
     7
 10
256.8847839599000054
 20
127.6376596796999934
 30
0.0
 11
256.8847839599000054
 21
141.6376596796999934
 31
0.0
  0
LINE
  5
39A
  8
0
  6
CONTINUOUS
 62
     7
 10
261.3593339598000966
 20
122.5876596796999962
 30
0.0
 11
261.3593339598000966
 21
108.5876596796999962
 31
0.0
  0
LINE
  5
39B
  8
0
  6
CONTINUOUS
 62
     7
 10
261.6462839599000176
 20
165.7376596796999024
 30
0.0
 11
261.6462839599000176
 21
179.7376596796999024
 31
0.0
  0
LINE
  5
39C
  8
0
  6
CONTINUOUS
 62
     7
 10
261.6472839598000064
 20
189.5459626797000112
 30
0.0
 11
261.6472839598000064
 21
203.5459626797000112
 31
0.0
  0
LINE
  5
39D
  8
0
  6
CONTINUOUS
 62
     7
 10
263.7406339597999931
 20
103.5376096796999974
 30
0.0
 11
263.7406339597999931
 21
89.5339926796999634
 31
0.0
  0
LINE
  5
39E
  8
0
  6
CONTINUOUS
 62
     7
 10
266.121833959900016
 20
160.6876596797000047
 30
0.0
 11
266.121833959900016
 21
146.6876596797000047
 31
0.0
  0
LINE
  5
39F
  8
0
  6
CONTINUOUS
 62
     7
 10
33.0472839597999979
 20
203.5459626797000112
 30
0.0
 11
47.0468339597999972
 21
203.5459626797000112
 31
0.0
  0
LINE
  5
3A0
  8
0
  6
CONTINUOUS
 62
     7
 10
52.0972089597999926
 20
203.5459626797000112
 30
0.0
 11
66.0967589597999989
 21
203.5459626797000112
 31
0.0
  0
LINE
  5
3A1
  8
0
  6
CONTINUOUS
 62
     7
 10
71.1472089597999968
 20
203.5459626797000112
 30
0.0
 11
85.1467589597999819
 21
203.5459626797000112
 31
0.0
  0
LINE
  5
3A2
  8
0
  6
CONTINUOUS
 62
     7
 10
90.197208959799994
 20
203.5459626797000112
 30
0.0
 11
104.1967589597999932
 21
203.5459626797000112
 31
0.0
  0
LINE
  5
3A3
  8
0
  6
CONTINUOUS
 62
     7
 10
109.2472089598000053
 20
203.5459626797000112
 30
0.0
 11
123.2467589598000046
 21
203.5459626797000112
 31
0.0
  0
LINE
  5
3A4
  8
0
  6
CONTINUOUS
 62
     7
 10
128.2972089598000025
 20
203.5459626797000112
 30
0.0
 11
142.2967589598000018
 21
203.5459626797000112
 31
0.0
  0
LINE
  5
3A5
  8
0
  6
CONTINUOUS
 62
     7
 10
147.2967589598000018
 20
203.5459626797000112
 30
0.0
 11
151.8723589598000103
 21
203.5459626797000112
 31
0.0
  0
LINE
  5
3A6
  8
0
  6
CONTINUOUS
 62
     7
 10
156.8723589598000103
 20
203.5459626797000112
 30
0.0
 11
170.8719089598000096
 21
203.5459626797000112
 31
0.0
  0
LINE
  5
3A7
  8
0
  6
CONTINUOUS
 62
     7
 10
175.9222839598000121
 20
203.5459626797000112
 30
0.0
 11
189.9218339597998124
 21
203.5459626797000112
 31
0.0
  0
LINE
  5
3A8
  8
0
  6
CONTINUOUS
 62
     7
 10
194.972283959799995
 20
203.5459626797000112
 30
0.0
 11
208.9718339597999943
 21
203.5459626797000112
 31
0.0
  0
LINE
  5
3A9
  8
0
  6
CONTINUOUS
 62
     7
 10
214.0222839598000064
 20
203.5459626797000112
 30
0.0
 11
228.0218339598000057
 21
203.5459626797000112
 31
0.0
  0
LINE
  5
3AA
  8
0
  6
CONTINUOUS
 62
     7
 10
233.0218339598000057
 20
203.5459626797000112
 30
0.0
 11
237.5973589598000046
 21
203.5459626797000112
 31
0.0
  0
LINE
  5
3AB
  8
0
  6
CONTINUOUS
 62
     7
 10
242.5973589598000046
 20
203.5459626797000112
 30
0.0
 11
256.5969089597999755
 21
203.5459626797000112
 31
0.0
  0
LINE
  5
3AC
  8
0
  6
CONTINUOUS
 62
     7
 10
261.6472839598000064
 20
203.5459626797000112
 30
0.0
 11
275.6468339598000057
 21
203.5459626797000112
 31
0.0
  0
LINE
  5
3AD
  8
0
  6
CONTINUOUS
 62
     7
 10
280.6972839598000178
 20
203.5459626797000112
 30
0.0
 11
294.6968339598000171
 21
203.5459626797000112
 31
0.0
  0
LINE
  5
3AE
  8
0
  6
CONTINUOUS
 62
     7
 10
299.7472839597999723
 20
203.5459626797000112
 30
0.0
 11
313.7468339597999716
 21
203.5459626797000112
 31
0.0
  0
LINE
  5
3AF
  8
0
  6
CONTINUOUS
 62
     7
 10
323.5598589598000103
 20
203.5459626797000112
 30
0.0
 11
337.5594089598000096
 21
203.5459626797000112
 31
0.0
  0
LINE
  5
3B0
  8
0
  6
CONTINUOUS
 62
     7
 10
342.6097839597999837
 20
203.5459626797000112
 30
0.0
 11
356.6093339597999829
 21
203.5459626797000112
 31
0.0
  0
LINE
  5
3B1
  8
0
  6
CONTINUOUS
 62
     7
 10
361.659783959799995
 20
203.5459626797000112
 30
0.0
 11
375.6593339597999943
 21
203.5459626797000112
 31
0.0
  0
LINE
  5
3B2
  8
0
  6
CONTINUOUS
 62
     7
 10
371.3325456140000256
 20
207.0868934050000121
 30
0.0
 11
367.0951478230999783
 21
207.0868934050000121
 31
0.0
  0
LINE
  5
3B3
  8
0
  6
CONTINUOUS
 62
     7
 10
40.7474477952000029
 20
207.0868934050000121
 30
0.0
 11
30.6624535565999992
 21
207.0868934050000121
 31
0.0
  0
LINE
  5
3B4
  8
0
  6
CONTINUOUS
 62
     7
 10
362.710718634099976
 20
210.0815343332999987
 30
0.0
 11
288.2601315122000187
 21
210.0815343332999987
 31
0.0
  0
LINE
  5
3B5
  8
0
  6
CONTINUOUS
 62
     7
 10
271.9221221366000236
 20
210.0815343332999987
 30
0.0
 11
136.7827849766999861
 21
210.0815343332999987
 31
0.0
  0
LINE
  5
3B6
  8
0
  6
CONTINUOUS
 62
     7
 10
120.4519363630000015
 20
210.0815343332999987
 30
0.0
 11
54.0962707335999866
 21
210.0815343332999987
 31
0.0
  0
LINE
  5
3B7
  8
0
  6
CONTINUOUS
 62
     7
 10
270.8843339599000046
 20
141.6376596796999934
 30
0.0
 11
270.8843339599000046
 21
127.6376596796999934
 31
0.0
  0
LINE
  5
3B8
  8
0
  6
CONTINUOUS
 62
     7
 10
271.1712839598999949
 20
89.5339926796999634
 30
0.0
 11
271.1712839598999949
 21
103.5376096796999974
 31
0.0
  0
LINE
  5
3B9
  8
0
  6
CONTINUOUS
 62
     7
 10
271.1722839599000281
 20
146.6876596797000047
 30
0.0
 11
271.1722839599000281
 21
160.6876596797000047
 31
0.0
  0
LINE
  5
3BA
  8
0
  6
CONTINUOUS
 62
     7
 10
274.3596339599000089
 20
109.9072596797000045
 30
0.0
 11
274.3596339599000089
 21
121.267259679700004
 31
0.0
  0
LINE
  5
3BB
  8
0
  6
CONTINUOUS
 62
     7
 10
275.6458339599000169
 20
179.7376596796999024
 30
0.0
 11
275.6458339599000169
 21
165.7376596796999024
 31
0.0
  0
LINE
  5
3BC
  8
0
  6
CONTINUOUS
 62
     7
 10
275.6468339598000057
 20
203.5459626797000112
 30
0.0
 11
275.6468339598000057
 21
189.5459626797000112
 31
0.0
  0
LINE
  5
3BD
  8
0
  6
CONTINUOUS
 62
     7
 10
275.9347839599000167
 20
127.637309679699996
 30
0.0
 11
275.9347839599000167
 21
141.637309679699996
 31
0.0
  0
LINE
  5
3BE
  8
0
  6
CONTINUOUS
 62
     7
 10
280.6972839598000178
 20
189.5459626797000112
 30
0.0
 11
280.6972839598000178
 21
203.5459626797000112
 31
0.0
  0
LINE
  5
3BF
  8
0
  6
CONTINUOUS
 62
     7
 10
378.5464117133998911
 20
212.8453800862000094
 30
0.0
 11
375.1023138922000157
 21
212.8453800862000094
 31
0.0
  0
LINE
  5
3C0
  8
0
  6
CONTINUOUS
 62
     7
 10
283.2571839284000248
 20
213.4534348955000098
 30
0.0
 11
276.9508769482000048
 21
213.4534348955000098
 31
0.0
  0
LINE
  5
3C1
  8
0
  6
CONTINUOUS
 62
     7
 10
131.754030165100005
 20
213.4534348955000098
 30
0.0
 11
125.4806911745999969
 21
213.4534348955000098
 31
0.0
  0
LINE
  5
3C2
  8
0
  6
CONTINUOUS
 62
     7
 10
49.0675159219999983
 20
213.4534348955000098
 30
0.0
 11
44.2474175125000002
 21
213.4534348955000098
 31
0.0
  0
LINE
  5
3C3
  8
0
  6
CONTINUOUS
 62
     7
 10
281.5041339599000025
 20
167.0573096797000119
 30
0.0
 11
281.5041339599000025
 21
178.4173096796999971
 31
0.0
  0
LINE
  5
3C4
  8
0
  6
CONTINUOUS
 62
     7
 10
283.0776339598000959
 20
108.5872596796999972
 30
0.0
 11
283.0776339598000959
 21
109.9072596797000045
 31
0.0
  0
LINE
  5
3C5
  8
0
  6
CONTINUOUS
 62
     7
 10
283.0776339598000959
 20
121.267259679700004
 30
0.0
 11
283.0776339598000959
 21
122.5872596796999972
 31
0.0
  0
LINE
  5
3C6
  8
0
  6
CONTINUOUS
 62
     7
 10
285.1718339599000274
 20
160.6876596797000047
 30
0.0
 11
285.1718339599000274
 21
146.6876596797000047
 31
0.0
  0
LINE
  5
3C7
  8
0
  6
CONTINUOUS
 62
     7
 10
287.552633959800005
 20
103.5376096796999974
 30
0.0
 11
287.552633959800005
 21
89.5339926796999634
 31
0.0
  0
LINE
  5
3C8
  8
0
  6
CONTINUOUS
 62
     7
 10
290.2221339597999759
 20
165.7373096796999903
 30
0.0
 11
290.2221339597999759
 21
167.0573096797000119
 31
0.0
  0
LINE
  5
3C9
  8
0
  6
CONTINUOUS
 62
     7
 10
290.2221339597999759
 20
178.4173096796999971
 30
0.0
 11
290.2221339597999759
 21
179.7373096796999903
 31
0.0
  0
LINE
  5
3CA
  8
0
  6
CONTINUOUS
 62
     7
 10
258.5769189510000956
 20
80.4123343353000166
 30
0.0
 11
259.7111670549001019
 21
82.376909679700006
 31
0.0
  0
LINE
  5
3CB
  8
0
  6
CONTINUOUS
 62
     7
 10
294.6968339598000171
 20
203.5459626797000112
 30
0.0
 11
294.6968339598000171
 21
189.5459626797000112
 31
0.0
  0
LINE
  5
3CC
  8
0
  6
CONTINUOUS
 62
     7
 10
294.9837839598000073
 20
89.5339926796999634
 30
0.0
 11
294.9837839598000073
 21
103.5376096796999974
 31
0.0
  0
LINE
  5
3CD
  8
0
  6
CONTINUOUS
 62
     7
 10
294.9837839598000073
 20
146.6876596797000047
 30
0.0
 11
294.9837839598000073
 21
160.6876596797000047
 31
0.0
  0
LINE
  5
3CE
  8
0
  6
CONTINUOUS
 62
     7
 10
297.0776339597999822
 20
122.5872596796999972
 30
0.0
 11
297.0776339597999822
 21
121.267259679700004
 31
0.0
  0
LINE
  5
3CF
  8
0
  6
CONTINUOUS
 62
     7
 10
297.0776339597999822
 20
109.9072596797000045
 30
0.0
 11
297.0776339597999822
 21
108.5872596796999972
 31
0.0
  0
LINE
  5
3D0
  8
0
  6
CONTINUOUS
 62
     7
 10
297.3646339598000168
 20
141.637309679699996
 30
0.0
 11
297.3646339598000168
 21
146.6876596797000047
 31
0.0
  0
LINE
  5
3D1
  8
0
  6
CONTINUOUS
 62
     7
 10
299.7472839597999723
 20
189.5459626797000112
 30
0.0
 11
299.7472839597999723
 21
203.5459626797000112
 31
0.0
  0
LINE
  5
3D2
  8
0
  6
CONTINUOUS
 62
     7
 10
301.8401339598000277
 20
128.4439596796999865
 30
0.0
 11
301.8401339598000277
 21
127.637309679699996
 31
0.0
  0
LINE
  5
3D3
  8
0
  6
CONTINUOUS
 62
     7
 10
304.2221339597999759
 20
179.7373096796999903
 30
0.0
 11
304.2221339597999759
 21
178.4173096796999971
 31
0.0
  0
LINE
  5
3D4
  8
0
  6
CONTINUOUS
 62
     7
 10
304.2221339597999759
 20
167.0573096797000119
 30
0.0
 11
304.2221339597999759
 21
165.7373096796999903
 31
0.0
  0
LINE
  5
3D5
  8
0
  6
CONTINUOUS
 62
     7
 10
305.7956339598
 20
121.267259679700004
 30
0.0
 11
305.7956339598
 21
109.9072596797000045
 31
0.0
  0
LINE
  5
3D6
  8
0
  6
CONTINUOUS
 62
     7
 10
353.9937400582999771
 20
82.376909679700006
 30
0.0
 11
355.156855675700001
 21
80.3623343352999626
 31
0.0
  0
LINE
  5
3D7
  8
0
  6
CONTINUOUS
 62
     7
 10
310.0446339598000236
 20
160.6876596797000047
 30
0.0
 11
310.0446339598000236
 21
157.6399205172000109
 31
0.0
  0
LINE
  5
3D8
  8
0
  6
CONTINUOUS
 62
     7
 10
310.0446339598000236
 20
154.661598842199993
 30
0.0
 11
310.0446339598000236
 21
151.1619596797000042
 31
0.0
  0
LINE
  5
3D9
  8
0
  6
CONTINUOUS
 62
     7
 10
310.5581339597999886
 20
137.1619596797000042
 30
0.0
 11
310.5581339597999886
 21
133.5540189829000042
 31
0.0
  0
LINE
  5
3DA
  8
0
  6
CONTINUOUS
 62
     7
 10
310.5581339597999886
 20
130.8939003764999995
 30
0.0
 11
310.5581339597999886
 21
128.4439596796999865
 31
0.0
  0
LINE
  5
3DB
  8
0
  6
CONTINUOUS
 62
     7
 10
311.3646339598000168
 20
151.1619596797000042
 30
0.0
 11
311.3646339598000168
 21
137.1619596797000042
 31
0.0
  0
LINE
  5
3DC
  8
0
  6
CONTINUOUS
 62
     7
 10
311.3656339597999931
 20
103.5376096796999974
 30
0.0
 11
311.3656339597999931
 21
89.5339926796999634
 31
0.0
  0
LINE
  5
3DD
  8
0
  6
CONTINUOUS
 62
     7
 10
312.9401339597999936
 20
178.4173096796999971
 30
0.0
 11
312.9401339597999936
 21
167.0573096797000119
 31
0.0
  0
LINE
  5
3DE
  8
0
  6
CONTINUOUS
 62
     7
 10
313.7466339598000218
 20
185.1409626797000101
 30
0.0
 11
313.7466339598000218
 21
184.1409626797000101
 31
0.0
  0
LINE
  5
3DF
  8
0
  6
CONTINUOUS
 62
     7
 10
313.7468339597999716
 20
203.5459626797000112
 30
0.0
 11
313.7468339597999716
 21
189.5459626797000112
 31
0.0
  0
LINE
  5
3E0
  8
0
  6
CONTINUOUS
 62
     7
 10
286.7806658597999103
 20
210.6994873493999876
 30
0.0
 11
284.6228445306999788
 21
212.8830167268000082
 31
0.0
  0
LINE
  5
3E1
  8
0
  6
CONTINUOUS
 62
     7
 10
323.55963395980001
 20
132.0905616789999897
 30
0.0
 11
323.55963395980001
 21
139.6905616790000124
 31
0.0
  0
LINE
  5
3E2
  8
0
  6
CONTINUOUS
 62
     7
 10
323.55963395980001
 20
184.1409626797000101
 30
0.0
 11
323.55963395980001
 21
185.1409626797000101
 31
0.0
  0
LINE
  5
3E3
  8
0
  6
CONTINUOUS
 62
     7
 10
323.5598589598000103
 20
89.5369096796999884
 30
0.0
 11
323.5598589598000103
 21
103.5369096797000026
 31
0.0
  0
LINE
  5
3E4
  8
0
  6
CONTINUOUS
 62
     7
 10
323.5598589598000103
 20
108.5868596796999981
 30
0.0
 11
323.5598589598000103
 21
122.5868596796999981
 31
0.0
  0
LINE
  5
3E5
  8
0
  6
CONTINUOUS
 62
     7
 10
323.5598589598000103
 20
146.6869596797000099
 30
0.0
 11
323.5598589598000103
 21
160.6869596797000099
 31
0.0
  0
LINE
  5
3E6
  8
0
  6
CONTINUOUS
 62
     7
 10
323.5598589598000103
 20
165.7369596796999929
 30
0.0
 11
323.5598589598000103
 21
179.7369596796999929
 31
0.0
  0
LINE
  5
3E7
  8
0
  6
CONTINUOUS
 62
     7
 10
323.5598589598000103
 20
189.5459626797000112
 30
0.0
 11
323.5598589598000103
 21
203.5459626797000112
 31
0.0
  0
LINE
  5
3E8
  8
0
  6
CONTINUOUS
 62
     7
 10
337.5594089598000096
 20
203.5459626797000112
 30
0.0
 11
337.5594089598000096
 21
189.5459626797000112
 31
0.0
  0
LINE
  5
3E9
  8
0
  6
CONTINUOUS
 62
     7
 10
337.5594089598000096
 20
179.7369596796999929
 30
0.0
 11
337.5594089598000096
 21
165.7369596796999929
 31
0.0
  0
LINE
  5
3EA
  8
0
  6
CONTINUOUS
 62
     7
 10
337.5594089598000096
 20
160.6869596797000099
 30
0.0
 11
337.5594089598000096
 21
146.6869596797000099
 31
0.0
  0
LINE
  5
3EB
  8
0
  6
CONTINUOUS
 62
     7
 10
337.5594089598000096
 20
122.5868596796999981
 30
0.0
 11
337.5594089598000096
 21
108.5868596796999981
 31
0.0
  0
LINE
  5
3EC
  8
0
  6
CONTINUOUS
 62
     7
 10
337.5594089598000096
 20
103.5369096797000026
 30
0.0
 11
337.5594089598000096
 21
89.5369096796999884
 31
0.0
  0
LINE
  5
3ED
  8
0
  6
CONTINUOUS
 62
     7
 10
342.6097839597999837
 20
89.5369096796999884
 30
0.0
 11
342.6097839597999837
 21
103.5369096797000026
 31
0.0
  0
LINE
  5
3EE
  8
0
  6
CONTINUOUS
 62
     7
 10
342.6097839597999837
 20
108.5868596796999981
 30
0.0
 11
342.6097839597999837
 21
122.5868596796999981
 31
0.0
  0
LINE
  5
3EF
  8
0
  6
CONTINUOUS
 62
     7
 10
342.6097839597999837
 20
146.6869596797000099
 30
0.0
 11
342.6097839597999837
 21
160.6869596797000099
 31
0.0
  0
LINE
  5
3F0
  8
0
  6
CONTINUOUS
 62
     7
 10
342.6097839597999837
 20
165.7369596796999929
 30
0.0
 11
342.6097839597999837
 21
179.7369596796999929
 31
0.0
  0
LINE
  5
3F1
  8
0
  6
CONTINUOUS
 62
     7
 10
342.6097839597999837
 20
189.5459626797000112
 30
0.0
 11
342.6097839597999837
 21
203.5459626797000112
 31
0.0
  0
LINE
  5
3F2
  8
0
  6
CONTINUOUS
 62
     7
 10
356.6093339597999829
 20
203.5459626797000112
 30
0.0
 11
356.6093339597999829
 21
189.5459626797000112
 31
0.0
  0
LINE
  5
3F3
  8
0
  6
CONTINUOUS
 62
     7
 10
356.6093339597999829
 20
179.7369596796999929
 30
0.0
 11
356.6093339597999829
 21
165.7369596796999929
 31
0.0
  0
LINE
  5
3F4
  8
0
  6
CONTINUOUS
 62
     7
 10
356.6093339597999829
 20
160.6869596797000099
 30
0.0
 11
356.6093339597999829
 21
146.6869596797000099
 31
0.0
  0
LINE
  5
3F5
  8
0
  6
CONTINUOUS
 62
     7
 10
356.6093339597999829
 20
122.5868596796999981
 30
0.0
 11
356.6093339597999829
 21
108.5868596796999981
 31
0.0
  0
LINE
  5
3F6
  8
0
  6
CONTINUOUS
 62
     7
 10
356.6093339597999829
 20
103.5369096797000026
 30
0.0
 11
356.6093339597999829
 21
89.5369096796999884
 31
0.0
  0
LINE
  5
3F7
  8
0
  6
CONTINUOUS
 62
     7
 10
356.6096339598000213
 20
139.6905616790000124
 30
0.0
 11
356.6096339598000213
 21
132.0905616789999897
 31
0.0
  0
LINE
  5
3F8
  8
0
  6
CONTINUOUS
 62
     7
 10
361.659783959799995
 20
89.5369096796999884
 30
0.0
 11
361.659783959799995
 21
103.5369096797000026
 31
0.0
  0
LINE
  5
3F9
  8
0
  6
CONTINUOUS
 62
     7
 10
361.659783959799995
 20
108.5868596796999981
 30
0.0
 11
361.659783959799995
 21
122.5868596796999981
 31
0.0
  0
LINE
  5
3FA
  8
0
  6
CONTINUOUS
 62
     7
 10
361.659783959799995
 20
146.6869596797000099
 30
0.0
 11
361.659783959799995
 21
160.6869596797000099
 31
0.0
  0
LINE
  5
3FB
  8
0
  6
CONTINUOUS
 62
     7
 10
361.659783959799995
 20
165.7369596796999929
 30
0.0
 11
361.659783959799995
 21
179.7369596796999929
 31
0.0
  0
LINE
  5
3FC
  8
0
  6
CONTINUOUS
 62
     7
 10
361.659783959799995
 20
189.5459626797000112
 30
0.0
 11
361.659783959799995
 21
203.5459626797000112
 31
0.0
  0
LINE
  5
3FD
  8
0
  6
CONTINUOUS
 62
     7
 10
365.0524535564001098
 20
134.3262512068000092
 30
0.0
 11
365.0524535564001098
 21
137.9264863031999937
 31
0.0
  0
LINE
  5
3FE
  8
0
  6
CONTINUOUS
 62
     7
 10
362.0051355046999788
 20
80.2691494859999892
 30
0.0
 11
367.6895034835999923
 21
86.4194492663999938
 31
0.0
  0
LINE
  5
3FF
  8
0
  6
CONTINUOUS
 62
     7
 10
365.6243657182000106
 20
207.6961113001000001
 30
0.0
 11
363.7558777191001127
 21
209.5645992992000117
 31
0.0
  0
LINE
  5
400
  8
0
  6
CONTINUOUS
 62
     7
 10
373.4125456140000097
 20
211.1556118078999873
 30
0.0
 11
373.4125456140000097
 21
209.1668934049999962
 31
0.0
  0
LINE
  5
401
  8
0
  6
CONTINUOUS
 62
     7
 10
375.6593339597999943
 20
203.5459626797000112
 30
0.0
 11
375.6593339597999943
 21
189.5459626797000112
 31
0.0
  0
LINE
  5
402
  8
0
  6
CONTINUOUS
 62
     7
 10
375.6593339597999943
 20
179.7369596796999929
 30
0.0
 11
375.6593339597999943
 21
165.7369596796999929
 31
0.0
  0
LINE
  5
403
  8
0
  6
CONTINUOUS
 62
     7
 10
375.6593339597999943
 20
160.6869596797000099
 30
0.0
 11
375.6593339597999943
 21
146.6869596797000099
 31
0.0
  0
LINE
  5
404
  8
0
  6
CONTINUOUS
 62
     7
 10
375.6593339597999943
 20
122.5868596796999981
 30
0.0
 11
375.6593339597999943
 21
108.5868596796999981
 31
0.0
  0
LINE
  5
405
  8
0
  6
CONTINUOUS
 62
     7
 10
375.6593339597999943
 20
103.5369096797000026
 30
0.0
 11
375.6593339597999943
 21
89.5369096796999884
 31
0.0
  0
LINE
  5
406
  8
0
  6
CONTINUOUS
 62
     7
 10
375.6596339597999759
 20
185.1409626797000101
 30
0.0
 11
375.6596339597999759
 21
184.1409626797000101
 31
0.0
  0
LINE
  5
407
  8
0
  6
CONTINUOUS
 62
     7
 10
378.1524535564000189
 20
137.9264863031999937
 30
0.0
 11
378.1524535564000189
 21
134.3262512068000092
 31
0.0
  0
LINE
  5
408
  8
0
  6
CONTINUOUS
 62
     7
 10
380.0075464433999741
 20
88.507665679699997
 30
0.0
 11
380.0075464433999741
 21
211.3920497930000124
 31
0.0
  0
ARC
  5
409
  8
0
  6
CONTINUOUS
 62
     7
 10
39.4879000767000008
 20
85.0076656796999828
 30
0.0
 40
2.0800000000000001
 50
42.7454250340000002
 51
90.0
  0
ARC
  5
40A
  8
0
  6
CONTINUOUS
 62
     7
 10
56.5124998946999995
 20
81.3369096796999997
 30
0.0
 40
2.0800000000000001
 50
90.0
 51
149.9999999995999929
  0
ARC
  5
40B
  8
0
  6
CONTINUOUS
 62
     7
 10
147.1924072184000067
 20
81.3369096796999997
 30
0.0
 40
2.0800000000000001
 50
30.0000000004
 51
90.0
  0
ARC
  5
40C
  8
0
  6
CONTINUOUS
 62
     7
 10
161.512499894799987
 20
81.3369096796999997
 30
0.0
 40
2.0800000000000001
 50
90.0
 51
149.9999999995999929
  0
ARC
  5
40D
  8
0
  6
CONTINUOUS
 62
     7
 10
48.1097748880999916
 20
81.572334335299999
 30
0.0
 40
1.919999999999999
 50
222.745425034100009
 51
270.0
  0
CIRCLE
  5
40E
  8
0
  6
CONTINUOUS
 62
     7
 10
49.3524535565999969
 20
83.4042015466000066
 30
0.0
 40
1.5849999999999991
  0
CIRCLE
  5
40F
  8
0
  6
CONTINUOUS
 62
     7
 10
154.3524535566000111
 20
83.4042015466000066
 30
0.0
 40
1.5849999999999991
  0
ARC
  5
410
  8
0
  6
CONTINUOUS
 62
     7
 10
111.4899339597999983
 20
103.0355361831000067
 30
0.0
 40
1.5
 50
0.0
 51
180.0
  0
ARC
  5
411
  8
0
  6
CONTINUOUS
 62
     7
 10
116.246983959800005
 20
103.0355361831000067
 30
0.0
 40
1.5
 50
0.0
 51
180.0
  0
ARC
  5
414
  8
0
  6
CONTINUOUS
 62
     7
 10
30.1624535565999992
 20
88.507665679699997
 30
0.0
 40
1.419999999999999
 50
180.0
 51
270.0
  0
ARC
  5
415
  8
0
  6
CONTINUOUS
 62
     7
 10
52.3182953641000026
 20
81.072334335299999
 30
0.0
 40
1.419999999999999
 50
270.0
 51
329.9999999995999929
  0
ARC
  5
416
  8
0
  6
CONTINUOUS
 62
     7
 10
151.3577442355999949
 20
81.1223343352999962
 30
0.0
 40
1.419999999999999
 50
210.0000000004000071
 51
270.0
  0
ARC
  5
417
  8
0
  6
CONTINUOUS
 62
     7
 10
157.3471628775999989
 20
81.1223343352999962
 30
0.0
 40
1.419999999999999
 50
270.0
 51
329.9999999995999929
  0
ARC
  5
418
  8
0
  6
CONTINUOUS
 62
     7
 10
120.4519363630000015
 20
212.1615343333000112
 30
0.0
 40
2.0800000000000001
 50
270.0
 51
315.0
  0
ARC
  5
419
  8
0
  6
CONTINUOUS
 62
     7
 10
54.0962707335999866
 20
212.1615343333000112
 30
0.0
 40
2.0800000000000001
 50
225.0
 51
270.0
  0
ARC
  5
41A
  8
0
  6
CONTINUOUS
 62
     7
 10
40.7474477952000029
 20
209.1668934049999962
 30
0.0
 40
2.0800000000000001
 50
270.0
 51
0.0006052874
  0
ARC
  5
41B
  8
0
  6
CONTINUOUS
 62
     7
 10
136.7827849766999861
 20
212.1615343333000112
 30
0.0
 40
2.0800000000000001
 50
225.0
 51
270.0
  0
ARC
  5
41C
  8
0
  6
CONTINUOUS
 62
     7
 10
125.4806911745999969
 20
211.5334348954999939
 30
0.0
 40
1.919999999999999
 50
90.0
 51
135.0
  0
ARC
  5
41D
  8
0
  6
CONTINUOUS
 62
     7
 10
49.0675159219999983
 20
211.5334348954999939
 30
0.0
 40
1.919999999999999
 50
45.0
 51
90.0
  0
ARC
  5
41E
  8
0
  6
CONTINUOUS
 62
     7
 10
30.6624535565999992
 20
205.1668934049999962
 30
0.0
 40
1.919999999999999
 50
90.0
 51
180.0
  0
ARC
  5
41F
  8
0
  6
CONTINUOUS
 62
     7
 10
131.754030165100005
 20
211.5334348954999939
 30
0.0
 40
1.919999999999999
 50
45.0
 51
90.0
  0
CIRCLE
  5
420
  8
0
  6
CONTINUOUS
 62
     7
 10
128.6173606698000071
 20
210.1635114926000085
 30
0.0
 40
1.5849999999999991
  0
CIRCLE
  5
421
  8
0
  6
CONTINUOUS
 62
     7
 10
46.1173606697999929
 20
210.1635114926000085
 30
0.0
 40
1.5849999999999991
  0
ARC
  5
422
  8
0
  6
CONTINUOUS
 62
     7
 10
44.2474175125000002
 20
212.0334348954999939
 30
0.0
 40
1.419999999999999
 50
90.0
 51
180.0006052873000044
  0
ARC
  5
423
  8
0
  6
CONTINUOUS
 62
     7
 10
247.1924072184000067
 20
81.3369096796999997
 30
0.0
 40
2.0800000000000001
 50
30.0000000004
 51
90.0
  0
ARC
  5
424
  8
0
  6
CONTINUOUS
 62
     7
 10
261.512499894799987
 20
81.3369096796999997
 30
0.0
 40
2.0800000000000001
 50
90.0
 51
149.9999999995999929
  0
ARC
  5
425
  8
0
  6
CONTINUOUS
 62
     7
 10
352.1924072183999783
 20
81.3369096796999997
 30
0.0
 40
2.0800000000000001
 50
30.0000000004
 51
90.0
  0
ARC
  5
426
  8
0
  6
CONTINUOUS
 62
     7
 10
369.2170070364999788
 20
85.0076656796999828
 30
0.0
 40
2.0800000000000001
 50
90.0
 51
137.254574965899991
  0
ARC
  5
427
  8
0
  6
CONTINUOUS
 62
     7
 10
360.5951322250999738
 20
81.572334335299999
 30
0.0
 40
1.919999999999999
 50
270.0
 51
317.2545749659000194
  0
CIRCLE
  5
428
  8
0
  6
CONTINUOUS
 62
     7
 10
254.3524535566000111
 20
83.4042015466000066
 30
0.0
 40
1.5849999999999991
  0
CIRCLE
  5
429
  8
0
  6
CONTINUOUS
 62
     7
 10
359.3524535565999827
 20
83.4042015466000066
 30
0.0
 40
1.5849999999999991
  0
ARC
  5
42B
  8
0
  6
CONTINUOUS
 62
     7
 10
211.490133959800005
 20
103.0355361831000067
 30
0.0
 40
1.5
 50
0.0
 51
180.0
  0
ARC
  5
42C
  8
0
  6
CONTINUOUS
 62
     7
 10
302.0156339598000272
 20
110.0872596796999972
 30
0.0
 40
1.5
 50
186.8921025793999888
 51
353.1078974206000112
  0
ARC
  5
42D
  8
0
  6
CONTINUOUS
 62
     7
 10
278.0888339599000005
 20
110.0872596796999972
 30
0.0
 40
1.5
 50
186.8921025793999888
 51
353.1078974206000112
  0
ARC
  5
42E
  8
0
  6
CONTINUOUS
 62
     7
 10
309.8646339598000168
 20
132.2239596796999876
 30
0.0
 40
1.5
 50
297.5377760274000138
 51
62.4622239726000004
  0
ARC
  5
42F
  8
0
  6
CONTINUOUS
 62
     7
 10
251.3577442355999949
 20
81.1223343352999962
 30
0.0
 40
1.419999999999999
 50
210.0000000004000071
 51
270.0
  0
ARC
  5
430
  8
0
  6
CONTINUOUS
 62
     7
 10
257.3471628775999989
 20
81.1223343352999962
 30
0.0
 40
1.419999999999999
 50
270.0
 51
329.9999999995999929
  0
ARC
  5
431
  8
0
  6
CONTINUOUS
 62
     7
 10
356.3866117490999841
 20
81.072334335299999
 30
0.0
 40
1.419999999999999
 50
210.0000000004000071
 51
270.0
  0
ARC
  5
432
  8
0
  6
CONTINUOUS
 62
     7
 10
378.5875464434000151
 20
88.507665679699997
 30
0.0
 40
1.419999999999999
 50
270.0
 51
0.0
  0
ARC
  5
433
  8
0
  6
CONTINUOUS
 62
     7
 10
377.1524535564000189
 20
137.9264863031999937
 30
0.0
 40
1.0
 50
0.0
 51
90.0
  0
ARC
  5
434
  8
0
  6
CONTINUOUS
 62
     7
 10
377.1524535564000189
 20
134.3262512068000092
 30
0.0
 40
1.0
 50
270.0
 51
0.0
  0
ARC
  5
435
  8
0
  6
CONTINUOUS
 62
     7
 10
366.0524535564001098
 20
134.3262512068000092
 30
0.0
 40
1.0
 50
180.0
 51
270.0
  0
ARC
  5
436
  8
0
  6
CONTINUOUS
 62
     7
 10
366.0524535564001098
 20
137.9264863031999937
 30
0.0
 40
1.0
 50
90.0
 51
180.0
  0
ARC
  5
437
  8
0
  6
CONTINUOUS
 62
     7
 10
371.3325456140000256
 20
209.1668934049999962
 30
0.0
 40
2.0800000000000001
 50
270.0
 51
0.0
  0
ARC
  5
438
  8
0
  6
CONTINUOUS
 62
     7
 10
367.0951478230999783
 20
209.1668934049999962
 30
0.0
 40
2.0800000000000001
 50
225.0
 51
270.0
  0
ARC
  5
439
  8
0
  6
CONTINUOUS
 62
     7
 10
288.2601315122000187
 20
212.1615343333000112
 30
0.0
 40
2.0800000000000001
 50
224.6607172399999968
 51
270.0
  0
ARC
  5
43A
  8
0
  6
CONTINUOUS
 62
     7
 10
271.9221221366000236
 20
212.1615343333000112
 30
0.0
 40
2.0800000000000001
 50
270.0
 51
315.0
  0
ARC
  5
43B
  8
0
  6
CONTINUOUS
 62
     7
 10
283.2571839284000248
 20
211.5334348954999939
 30
0.0
 40
1.919999999999999
 50
44.6607172399999897
 51
90.0
  0
ARC
  5
43C
  8
0
  6
CONTINUOUS
 62
     7
 10
276.9508769482000048
 20
211.5334348954999939
 30
0.0
 40
1.919999999999999
 50
90.0
 51
135.0
  0
ARC
  5
43D
  8
0
  6
CONTINUOUS
 62
     7
 10
362.4689433774000236
 20
208.2776649575000079
 30
0.0
 40
1.8200000000000001
 50
45.0
 51
82.3660588718999804
  0
ARC
  5
43E
  8
0
  6
CONTINUOUS
 62
     7
 10
375.1023138922000157
 20
211.1556118078999873
 30
0.0
 40
1.6897682781999981
 50
90.0
 51
180.0
  0
CIRCLE
  5
43F
  8
0
  6
CONTINUOUS
 62
     7
 10
376.7075464434000196
 20
210.1634758918999921
 30
0.0
 40
1.5849999999999991
  0
CIRCLE
  5
440
  8
0
  6
CONTINUOUS
 62
     7
 10
280.0875464434000151
 20
210.1635114926000085
 30
0.0
 40
1.5849999999999991
  0
ARC
  5
441
  8
0
  6
CONTINUOUS
 62
     7
 10
309.1601339598000209
 20
167.2373096796999903
 30
0.0
 40
1.5
 50
186.8921025793999888
 51
353.1078974206000112
  0
ARC
  5
442
  8
0
  6
CONTINUOUS
 62
     7
 10
285.2333339598999942
 20
167.2373096796999903
 30
0.0
 40
1.5
 50
186.8921025793999888
 51
353.1078974206000112
  0
ARC
  5
443
  8
0
  6
CONTINUOUS
 62
     7
 10
309.8646339598000168
 20
156.1507596797000019
 30
0.0
 40
1.5
 50
276.8921025783999994
 51
83.1078974216000006
  0
ARC
  5
444
  8
0
  6
CONTINUOUS
 62
     7
 10
378.5408572343999936
 20
211.3786400943000103
 30
0.0
 40
1.466750509099999
 50
0.5238313091000001
 51
89.7830244708999885
  0
POLYLINE
  5
4AF
  8
0
 66
     1
 10
0.0
 20
0.0
 30
0.0
 70
     1
  0
VERTEX
  5
607
  8
0
 10
35.4284589598000821
 20
122.5872596796999972
 30
0.0
  0
VERTEX
  5
608
  8
0
 10
70.8592589598003002
 20
122.5872596796999972
 30
0.0
  0
VERTEX
  5
609
  8
0
 10
70.8592589598003002
 20
108.5872596796999972
 30
0.0
  0
VERTEX
  5
60A
  8
0
 10
35.4284589598000821
 20
108.5872596796999972
 30
0.0
  0
SEQEND
  5
60B
  8
0
  0
POLYLINE
  5
5EE
  8
0
 66
     1
 10
0.0
 20
0.0
 30
0.0
 70
     1
  0
VERTEX
  5
64E
  8
0
 10
225.928633959799896
 20
89.5339926796999634
 30
0.0
  0
VERTEX
  5
64F
  8
0
 10
239.927633959800005
 20
89.5339926796999634
 30
0.0
  0
VERTEX
  5
650
  8
0
 10
239.927633959800005
 20
103.5376096796999974
 30
0.0
  0
VERTEX
  5
651
  8
0
 10
231.9601127194785022
 20
103.5376096796999974
 30
0.0
 42
0.7060074278563592
  0
VERTEX
  5
652
  8
0
 10
229.1331552001215073
 20
103.5376096796999974
 30
0.0
  0
VERTEX
  5
653
  8
0
 10
225.928633959799896
 20
103.5376096796999974
 30
0.0
  0
SEQEND
  5
654
  8
0
  0
ENDSEC
  0
EOF
